<svg id="svg" version="1.1" xmlns="http://www.w3.org/2000/svg" xmlns:xlink="http://www.w3.org/1999/xlink" width="400" height="393.9962476547842" viewBox="0, 0, 400,393.9962476547842"><g id="svgg"><path id="path0" d="M188.164 205.635 C 188.260 205.731,187.638 206.484,186.780 207.308 C 185.923 208.131,185.222 208.996,185.222 209.230 C 185.222 209.464,185.044 209.655,184.828 209.655 C 184.611 209.655,184.433 209.909,184.433 210.220 C 184.433 210.530,184.079 210.897,183.645 211.034 C 183.212 211.172,182.857 211.539,182.857 211.849 C 182.857 212.160,182.680 212.414,182.463 212.414 C 182.246 212.414,182.069 212.726,182.069 213.107 C 182.069 213.489,181.702 214.029,181.255 214.309 C 180.807 214.589,180.511 215.031,180.598 215.291 C 180.685 215.551,180.210 216.278,179.541 216.908 C 178.872 217.537,178.376 218.220,178.437 218.426 C 178.499 218.632,178.188 219.113,177.748 219.496 C 177.307 219.878,176.946 220.441,176.946 220.747 C 176.946 221.053,176.567 221.565,176.105 221.883 C 174.774 222.801,173.802 223.932,174.029 224.299 C 174.143 224.484,173.960 224.742,173.621 224.873 C 173.282 225.003,173.005 225.446,173.005 225.858 C 173.005 226.269,172.562 226.992,172.020 227.463 C 171.478 227.934,171.034 228.490,171.034 228.698 C 171.034 228.907,170.502 229.586,169.852 230.207 C 169.202 230.828,168.670 231.525,168.670 231.756 C 168.670 232.405,167.540 233.379,167.101 233.108 C 166.874 232.968,166.808 233.124,166.943 233.477 C 167.072 233.813,166.982 234.089,166.742 234.089 C 166.502 234.089,166.305 234.433,166.305 234.855 C 166.305 235.276,165.992 235.852,165.610 236.135 C 165.227 236.419,164.691 237.156,164.418 237.773 C 164.145 238.391,163.561 238.991,163.121 239.106 C 162.619 239.237,162.402 239.530,162.541 239.892 C 162.670 240.228,162.270 240.929,161.578 241.575 C 160.927 242.183,160.394 242.893,160.394 243.153 C 160.394 243.412,159.905 244.095,159.308 244.669 C 158.710 245.244,157.868 246.423,157.436 247.289 C 157.004 248.155,156.163 249.335,155.567 249.910 C 154.970 250.486,154.483 251.164,154.483 251.418 C 154.483 252.101,153.367 253.093,152.914 252.813 C 152.686 252.671,152.621 252.831,152.760 253.193 C 152.912 253.588,152.549 254.246,151.771 254.990 C 151.095 255.636,150.542 256.357,150.542 256.592 C 150.542 257.362,149.047 258.973,148.761 258.510 C 148.614 258.272,148.397 256.664,148.278 254.938 C 148.160 253.211,147.911 251.705,147.726 251.590 C 147.541 251.476,147.389 250.417,147.389 249.238 C 147.389 248.058,147.212 247.094,146.995 247.094 C 146.773 247.094,146.601 245.977,146.601 244.532 C 146.601 243.087,146.429 241.970,146.207 241.970 C 145.990 241.970,145.813 241.006,145.813 239.826 C 145.813 238.647,145.635 237.572,145.419 237.438 C 145.202 237.304,145.025 236.141,145.025 234.854 C 145.025 233.462,144.855 232.512,144.606 232.512 C 144.370 232.512,144.241 231.951,144.310 231.232 C 144.461 229.671,142.020 227.399,140.185 227.393 C 139.577 227.391,138.988 227.126,138.862 226.798 C 138.560 226.011,137.931 226.042,137.931 226.844 C 137.931 227.311,137.668 227.431,136.946 227.293 C 136.404 227.189,135.961 227.257,135.961 227.444 C 135.961 227.631,135.695 227.783,135.369 227.783 C 135.044 227.783,134.778 228.049,134.778 228.374 C 134.778 228.700,134.622 228.966,134.430 228.966 C 133.437 228.966,132.819 237.404,133.785 237.775 C 134.200 237.934,134.278 238.512,134.106 240.175 C 133.950 241.683,134.020 242.365,134.329 242.365 C 134.615 242.365,134.778 243.222,134.778 244.729 C 134.778 246.043,134.953 247.094,135.172 247.094 C 135.391 247.094,135.567 248.144,135.567 249.458 C 135.567 250.772,135.742 251.823,135.961 251.823 C 136.180 251.823,136.355 252.874,136.355 254.187 C 136.355 255.501,136.530 256.552,136.749 256.552 C 136.968 256.552,137.143 257.603,137.143 258.916 C 137.143 260.410,137.307 261.281,137.588 261.281 C 137.899 261.281,137.952 261.993,137.765 263.645 C 137.534 265.687,137.586 266.010,138.147 266.010 C 138.707 266.010,138.760 266.329,138.529 268.320 C 138.303 270.259,138.364 270.670,138.908 270.878 C 139.432 271.079,139.507 271.458,139.299 272.844 C 139.075 274.341,139.173 274.704,140.063 275.664 C 140.624 276.270,141.084 277.113,141.084 277.538 C 141.084 278.063,141.273 278.238,141.675 278.084 C 142.000 277.959,142.266 278.029,142.266 278.239 C 142.266 278.449,142.599 278.621,143.006 278.621 C 143.413 278.621,143.967 278.887,144.236 279.212 C 144.876 279.982,146.560 279.973,146.858 279.198 C 147.047 278.705,147.521 278.641,149.407 278.854 C 151.418 279.082,151.724 279.029,151.724 278.455 C 151.724 277.881,152.030 277.828,154.030 278.054 C 155.923 278.268,156.377 278.205,156.572 277.696 C 156.764 277.198,157.208 277.124,158.848 277.318 C 160.481 277.512,160.956 277.434,161.240 276.928 C 161.522 276.423,161.998 276.343,163.594 276.532 C 165.038 276.703,165.684 276.624,165.917 276.247 C 166.135 275.895,166.957 275.754,168.440 275.814 C 169.772 275.867,170.640 275.739,170.640 275.488 C 170.640 275.245,171.614 275.074,173.005 275.074 C 174.319 275.074,175.369 274.899,175.369 274.680 C 175.369 274.461,176.420 274.286,177.734 274.286 C 179.048 274.286,180.099 274.111,180.099 273.892 C 180.099 273.673,181.149 273.498,182.463 273.498 C 183.777 273.498,184.828 273.322,184.828 273.103 C 184.828 272.887,185.714 272.709,186.798 272.709 C 187.882 272.709,188.768 272.532,188.768 272.315 C 188.768 272.099,188.954 271.921,189.180 271.921 C 189.899 271.921,191.527 270.019,191.527 269.180 C 191.527 268.737,191.704 268.374,191.921 268.374 C 192.138 268.374,192.315 267.754,192.315 266.995 C 192.315 266.236,192.138 265.616,191.921 265.616 C 191.704 265.616,191.527 265.344,191.527 265.011 C 191.527 263.044,188.946 261.675,185.235 261.675 C 183.124 261.675,181.675 261.835,181.675 262.069 C 181.675 262.288,180.624 262.463,179.310 262.463 C 177.997 262.463,176.946 262.638,176.946 262.857 C 176.946 263.076,175.895 263.251,174.581 263.251 C 173.268 263.251,172.217 263.426,172.217 263.645 C 172.217 263.864,171.166 264.039,169.852 264.039 C 168.539 264.039,167.488 264.215,167.488 264.433 C 167.488 264.652,166.445 264.828,165.146 264.828 C 163.859 264.828,162.696 265.005,162.562 265.222 C 162.428 265.438,161.397 265.610,160.272 265.604 C 158.675 265.594,158.380 265.503,158.925 265.185 C 159.308 264.962,159.514 264.603,159.381 264.388 C 159.248 264.173,159.510 263.676,159.964 263.283 C 160.417 262.889,160.788 262.349,160.788 262.082 C 160.788 261.815,161.320 261.100,161.970 260.493 C 162.621 259.885,163.153 259.207,163.153 258.986 C 163.153 258.764,163.677 258.059,164.317 257.418 C 164.958 256.778,165.370 256.141,165.232 256.004 C 165.095 255.867,165.546 255.287,166.235 254.717 C 166.924 254.146,167.488 253.392,167.488 253.043 C 167.488 252.693,167.842 252.185,168.276 251.914 C 168.709 251.643,169.064 251.227,169.064 250.990 C 169.064 250.371,170.899 248.272,171.188 248.560 C 171.320 248.693,171.429 248.419,171.429 247.951 C 171.429 247.483,171.783 246.879,172.217 246.608 C 172.650 246.337,173.005 245.812,173.005 245.441 C 173.005 245.070,173.701 244.207,174.552 243.523 C 175.470 242.785,176.014 242.056,175.890 241.731 C 175.774 241.429,175.876 241.182,176.115 241.182 C 176.355 241.182,176.552 240.899,176.552 240.552 C 176.552 240.206,177.059 239.448,177.679 238.869 C 178.299 238.290,178.926 237.437,179.073 236.973 C 179.221 236.509,179.783 235.840,180.323 235.486 C 180.864 235.132,181.198 234.668,181.066 234.455 C 180.935 234.241,181.372 233.557,182.039 232.934 C 182.706 232.312,183.251 231.558,183.251 231.259 C 183.251 230.960,183.606 230.460,184.039 230.148 C 184.473 229.835,184.828 229.369,184.828 229.111 C 184.828 228.853,185.360 228.194,186.010 227.647 C 186.660 227.100,187.192 226.402,187.192 226.096 C 187.192 225.791,187.542 225.224,187.970 224.837 C 188.398 224.449,188.867 223.757,189.012 223.298 C 189.270 222.480,191.054 220.691,191.613 220.690 C 191.769 220.690,191.809 220.462,191.702 220.183 C 191.595 219.905,191.867 219.291,192.306 218.820 C 192.744 218.349,193.103 217.823,193.103 217.651 C 193.103 217.478,193.636 216.834,194.287 216.220 C 194.939 215.605,195.371 214.940,195.248 214.741 C 195.125 214.542,195.301 214.272,195.640 214.142 C 195.979 214.012,196.256 213.570,196.256 213.160 C 196.256 212.749,196.433 212.414,196.650 212.414 C 197.175 212.414,197.159 210.547,196.633 210.372 C 196.406 210.296,196.189 209.811,196.150 209.294 C 196.070 208.232,194.374 206.108,193.607 206.108 C 193.330 206.108,193.103 205.975,193.103 205.813 C 193.103 205.650,191.953 205.504,190.546 205.489 C 189.140 205.473,188.068 205.539,188.164 205.635 M379.507 210.590 L 379.507 212.808 381.675 212.808 C 382.867 212.808,383.842 212.985,383.842 213.202 C 383.842 213.424,384.951 213.596,386.381 213.596 C 387.777 213.596,389.029 213.773,389.163 213.990 C 389.305 214.220,388.904 214.384,388.201 214.384 C 387.538 214.384,386.995 214.562,386.995 214.778 C 386.995 214.995,386.108 215.172,385.025 215.172 C 383.941 215.172,383.054 215.350,383.054 215.567 C 383.054 215.783,382.332 215.961,381.450 215.961 C 379.685 215.961,378.719 216.648,378.719 217.903 C 378.719 218.352,378.542 218.719,378.325 218.719 C 378.108 218.719,377.931 219.074,377.931 219.507 C 377.931 220.033,378.194 220.296,378.719 220.296 C 379.153 220.296,379.507 220.440,379.507 220.616 C 379.507 220.792,380.128 221.180,380.887 221.478 C 381.645 221.775,382.266 222.163,382.266 222.340 C 382.266 222.516,382.621 222.660,383.054 222.660 C 383.488 222.660,383.842 222.837,383.842 223.054 C 383.842 223.271,384.197 223.448,384.631 223.448 C 385.064 223.448,385.419 223.606,385.419 223.799 C 385.419 223.991,386.033 224.264,386.784 224.405 C 387.535 224.546,388.274 224.862,388.425 225.107 C 388.616 225.415,388.468 225.456,387.946 225.238 C 387.141 224.903,381.591 224.311,378.818 224.264 L 377.143 224.236 377.143 226.404 L 377.143 228.571 378.893 228.571 C 379.856 228.571,380.753 228.749,380.887 228.966 C 381.021 229.182,382.273 229.360,383.669 229.360 C 385.098 229.360,386.207 229.532,386.207 229.754 C 386.207 229.981,387.455 230.148,389.163 230.148 C 390.870 230.148,392.118 230.314,392.118 230.542 C 392.118 230.764,393.235 230.936,394.680 230.936 C 396.979 230.936,397.241 230.855,397.241 230.148 C 397.241 229.714,397.419 229.360,397.635 229.360 C 397.852 229.360,398.030 228.511,398.030 227.474 C 398.030 225.528,396.866 224.236,395.112 224.236 C 394.766 224.236,394.483 224.059,394.483 223.842 C 394.483 223.626,394.128 223.448,393.695 223.448 C 393.261 223.448,392.906 223.271,392.906 223.054 C 392.906 222.837,392.552 222.660,392.118 222.660 C 391.685 222.660,391.330 222.483,391.330 222.266 C 391.330 222.049,390.975 221.872,390.542 221.872 C 390.108 221.872,389.754 221.695,389.754 221.478 C 389.754 221.261,389.464 221.084,389.110 221.084 C 388.756 221.084,388.180 220.761,387.829 220.367 C 387.479 219.972,386.837 219.491,386.404 219.296 C 385.761 219.007,385.924 218.918,387.291 218.808 C 388.212 218.734,388.966 218.507,388.966 218.302 C 388.966 218.098,389.675 217.931,390.542 217.931 C 391.409 217.931,392.118 217.754,392.118 217.537 C 392.118 217.320,392.872 217.132,393.793 217.119 C 399.063 217.045,399.442 216.803,399.776 213.300 L 400.048 210.443 398.077 210.443 C 396.993 210.443,395.996 210.266,395.862 210.049 C 395.728 209.833,394.576 209.655,393.303 209.655 C 392.029 209.655,390.567 209.495,390.054 209.300 C 389.540 209.105,386.957 208.816,384.314 208.659 L 379.507 208.372 379.507 210.590 M372.512 245.713 C 372.241 246.020,372.020 246.546,372.020 246.880 C 372.020 247.214,371.842 247.488,371.626 247.488 C 371.398 247.488,371.232 248.736,371.232 250.443 C 371.232 252.868,371.120 253.399,370.612 253.399 C 369.547 253.399,368.867 254.463,368.867 256.129 C 368.867 257.448,369.002 257.734,369.622 257.734 C 370.038 257.734,370.458 257.956,370.556 258.227 C 370.699 258.621,370.901 258.621,371.569 258.227 C 372.569 257.636,373.990 257.578,373.990 258.128 C 373.990 258.345,374.522 258.522,375.172 258.522 C 375.823 258.522,376.355 258.700,376.355 258.916 C 376.355 259.133,377.064 259.310,377.931 259.310 C 378.798 259.310,379.507 259.488,379.507 259.704 C 379.507 259.921,380.128 260.099,380.887 260.099 C 381.645 260.099,382.266 259.921,382.266 259.704 C 382.266 259.488,382.545 259.310,382.885 259.310 C 383.682 259.310,384.631 258.362,384.631 257.565 C 384.631 257.224,384.764 256.944,384.926 256.943 C 386.281 256.929,386.708 250.498,385.438 249.237 C 383.206 247.020,381.949 246.858,381.141 248.684 C 380.528 250.067,380.831 251.823,381.682 251.823 C 382.403 251.823,382.448 253.245,381.773 254.697 C 380.732 256.939,380.296 255.968,380.296 251.411 C 380.296 245.768,379.815 245.115,375.683 245.138 C 373.880 245.148,372.844 245.336,372.512 245.713 M377.143 251.823 C 377.143 254.524,376.605 254.868,374.957 253.220 C 373.309 251.571,373.917 249.503,376.059 249.473 C 377.123 249.458,377.143 249.502,377.143 251.823 M31.133 261.281 C 31.133 261.498,30.601 261.675,29.951 261.675 C 29.300 261.675,28.768 261.852,28.768 262.069 C 28.768 262.286,28.502 262.463,28.177 262.463 C 27.852 262.463,27.586 262.640,27.586 262.857 C 27.586 263.074,27.232 263.251,26.798 263.251 C 26.365 263.251,26.010 263.409,26.010 263.601 C 26.010 263.794,25.382 264.070,24.614 264.214 C 22.521 264.606,19.311 266.134,19.311 266.738 C 19.310 267.533,20.530 269.951,20.932 269.951 C 21.124 269.951,21.281 270.749,21.281 271.724 C 21.281 272.700,21.458 273.498,21.675 273.498 C 21.892 273.498,22.069 273.769,22.069 274.102 C 22.069 274.886,24.621 277.438,25.406 277.438 C 25.738 277.438,26.010 277.616,26.010 277.833 C 26.010 278.049,26.808 278.227,27.783 278.227 C 28.759 278.227,29.557 278.049,29.557 277.833 C 29.557 277.616,30.089 277.438,30.739 277.438 C 31.389 277.438,31.921 277.261,31.921 277.044 C 31.921 276.828,32.205 276.650,32.551 276.650 C 33.321 276.650,35.468 274.423,35.468 273.625 C 35.468 273.060,36.371 271.921,36.819 271.921 C 36.943 271.921,37.044 272.276,37.044 272.709 C 37.044 273.847,38.807 273.741,40.018 272.530 C 41.044 271.504,41.537 265.222,40.591 265.222 C 40.374 265.222,40.197 264.956,40.197 264.631 C 40.197 264.305,40.020 264.039,39.803 264.039 C 39.586 264.039,39.409 263.765,39.409 263.430 C 39.409 261.777,37.621 260.887,34.304 260.887 C 32.453 260.887,31.133 261.051,31.133 261.281 M35.595 264.941 C 36.940 266.413,37.516 268.824,36.650 269.360 C 36.433 269.494,36.256 269.327,36.256 268.989 C 36.256 268.651,36.079 268.374,35.862 268.374 C 35.645 268.374,35.468 268.032,35.468 267.614 C 35.468 267.196,35.202 266.588,34.877 266.263 C 34.194 265.580,34.088 264.433,34.708 264.433 C 34.940 264.433,35.339 264.662,35.595 264.941 M29.557 267.192 C 29.557 267.409,29.835 267.586,30.176 267.586 C 31.696 267.586,32.595 270.522,31.429 271.677 C 30.719 272.380,28.362 273.500,27.624 273.484 C 25.121 273.432,24.275 268.374,26.770 268.374 C 27.002 268.374,27.192 268.197,27.192 267.980 C 27.192 267.764,27.547 267.586,27.980 267.586 C 28.414 267.586,28.768 267.409,28.768 267.192 C 28.768 266.975,28.946 266.798,29.163 266.798 C 29.379 266.798,29.557 266.975,29.557 267.192 M361.872 271.328 C 361.601 271.636,361.379 272.073,361.379 272.299 C 361.379 272.525,361.202 272.709,360.985 272.709 C 360.768 272.709,360.591 273.241,360.591 273.892 C 360.591 274.811,360.766 275.074,361.379 275.074 C 361.813 275.074,362.167 275.251,362.167 275.468 C 362.167 275.685,362.522 275.862,362.956 275.862 C 363.389 275.862,363.744 276.039,363.744 276.256 C 363.744 276.473,364.099 276.650,364.532 276.650 C 364.966 276.650,365.320 276.784,365.320 276.948 C 365.320 277.112,365.897 277.500,366.601 277.811 C 368.054 278.451,368.867 279.156,368.867 279.775 C 368.867 280.007,369.044 280.197,369.261 280.197 C 369.478 280.197,369.655 280.552,369.655 280.985 C 369.655 281.419,369.478 281.773,369.261 281.773 C 368.663 281.773,368.790 283.723,369.430 284.363 C 369.740 284.673,370.272 284.926,370.612 284.926 C 370.953 284.926,371.232 285.103,371.232 285.320 C 371.232 285.537,371.498 285.714,371.823 285.714 C 372.151 285.714,372.414 285.364,372.414 284.926 C 372.414 284.493,372.591 284.138,372.808 284.138 C 373.025 284.138,373.202 283.468,373.202 282.649 C 373.202 281.611,373.441 280.987,373.990 280.591 C 374.424 280.279,374.778 279.796,374.778 279.519 C 374.778 279.242,374.956 279.015,375.172 279.015 C 375.389 279.015,375.567 278.483,375.567 277.833 C 375.567 276.913,375.391 276.650,374.778 276.650 C 374.345 276.650,373.990 276.473,373.990 276.256 C 373.990 276.039,373.635 275.862,373.202 275.862 C 372.768 275.862,372.414 275.685,372.414 275.468 C 372.414 275.251,372.148 275.074,371.823 275.074 C 371.498 275.074,371.232 274.897,371.232 274.680 C 371.232 274.463,370.877 274.286,370.443 274.286 C 370.010 274.286,369.655 274.108,369.655 273.892 C 369.655 273.675,369.300 273.498,368.867 273.498 C 368.433 273.498,368.079 273.320,368.079 273.103 C 368.079 272.887,367.735 272.709,367.314 272.709 C 366.893 272.709,366.448 272.546,366.324 272.346 C 366.201 272.146,365.569 271.865,364.922 271.723 C 364.274 271.581,363.744 271.301,363.744 271.102 C 363.744 270.542,362.424 270.702,361.872 271.328 M43.744 288.001 C 43.202 288.369,42.700 288.803,42.627 288.966 C 42.555 289.128,42.195 289.261,41.828 289.261 C 41.460 289.261,40.904 289.616,40.591 290.049 C 40.279 290.483,39.708 290.837,39.322 290.837 C 38.936 290.837,38.621 290.971,38.621 291.135 C 38.621 291.299,38.105 291.661,37.475 291.940 C 34.308 293.342,34.296 298.798,37.455 301.414 C 38.096 301.946,38.621 302.621,38.621 302.914 C 38.621 303.208,38.798 303.448,39.015 303.448 C 39.232 303.448,39.409 303.727,39.409 304.068 C 39.409 305.702,41.791 306.405,42.653 305.025 C 42.924 304.591,43.457 304.236,43.839 304.236 C 44.220 304.236,44.532 304.093,44.532 303.918 C 44.532 303.743,45.241 303.287,46.108 302.904 C 46.975 302.522,47.685 302.044,47.685 301.843 C 47.685 301.642,47.917 301.478,48.202 301.478 C 48.486 301.478,49.099 301.123,49.564 300.690 C 50.030 300.256,50.515 299.901,50.642 299.901 C 50.769 299.901,51.309 299.466,51.841 298.934 C 52.793 297.982,53.183 295.961,52.414 295.961 C 52.197 295.961,52.020 295.695,52.020 295.369 C 52.020 295.002,51.648 294.778,51.034 294.778 C 50.493 294.778,50.049 294.956,50.049 295.172 C 50.049 295.389,49.707 295.567,49.289 295.567 C 48.871 295.567,48.263 295.833,47.938 296.158 C 47.613 296.483,47.190 296.749,46.999 296.749 C 46.808 296.749,46.307 297.059,45.887 297.438 C 45.467 297.818,44.591 298.394,43.941 298.719 C 43.291 299.043,42.612 299.487,42.433 299.704 C 42.222 299.960,42.037 299.926,41.908 299.606 C 41.798 299.335,41.412 299.112,41.051 299.110 C 40.413 299.107,39.409 297.500,39.409 296.481 C 39.409 296.203,39.839 295.868,40.365 295.736 C 40.891 295.604,41.628 295.157,42.003 294.743 C 42.377 294.329,42.883 293.990,43.127 293.990 C 43.370 293.990,43.825 293.635,44.138 293.202 C 44.450 292.768,44.982 292.414,45.320 292.414 C 45.658 292.414,46.190 292.059,46.502 291.626 C 46.815 291.192,47.386 290.837,47.772 290.837 C 48.210 290.837,48.473 290.542,48.473 290.049 C 48.473 289.616,48.296 289.261,48.079 289.261 C 47.862 289.261,47.685 289.071,47.685 288.839 C 47.685 287.367,45.395 286.880,43.744 288.001 M349.951 293.033 C 349.951 293.374,349.676 293.927,349.340 294.263 C 348.570 295.033,348.736 295.945,349.748 296.509 C 350.179 296.749,350.820 297.256,351.174 297.635 C 351.527 298.015,352.106 298.325,352.460 298.325 C 352.841 298.325,353.103 298.647,353.103 299.113 C 353.103 299.851,352.841 299.901,348.966 299.901 C 345.261 299.901,344.828 299.975,344.828 300.603 C 344.828 300.988,344.473 301.559,344.039 301.872 C 341.654 303.591,342.891 304.236,348.571 304.236 L 353.892 304.236 353.892 305.419 C 353.892 306.069,354.069 306.601,354.286 306.601 C 354.505 306.601,354.680 307.652,354.680 308.966 C 354.680 311.170,354.741 311.330,355.586 311.330 C 356.673 311.330,357.438 310.646,357.438 309.675 C 357.438 309.285,357.616 308.966,357.833 308.966 C 358.049 308.966,358.227 308.079,358.227 306.995 C 358.227 305.911,358.049 305.025,357.833 305.025 C 357.616 305.025,357.438 304.404,357.438 303.645 C 357.438 302.168,357.831 301.906,358.621 302.857 C 358.891 303.182,359.373 303.448,359.693 303.448 C 360.013 303.448,360.772 303.980,361.379 304.631 C 361.987 305.281,362.728 305.813,363.027 305.813 C 363.325 305.813,363.825 306.167,364.138 306.601 C 364.870 307.617,365.151 307.594,366.323 306.422 C 367.816 304.929,367.373 302.266,365.632 302.266 C 365.340 302.266,364.844 301.911,364.532 301.478 C 364.220 301.044,363.776 300.690,363.547 300.690 C 363.317 300.690,362.874 300.335,362.562 299.901 C 362.249 299.468,361.765 299.113,361.486 299.113 C 361.207 299.113,360.421 298.581,359.741 297.931 C 359.060 297.281,358.264 296.749,357.971 296.749 C 357.678 296.749,357.438 296.583,357.438 296.381 C 357.438 296.179,357.039 295.888,356.552 295.734 C 356.064 295.580,355.378 295.124,355.028 294.722 C 354.677 294.319,354.140 293.990,353.834 293.990 C 353.528 293.990,353.022 293.635,352.709 293.202 C 352.013 292.235,349.951 292.109,349.951 293.033 M59.620 313.106 C 58.272 314.513,56.991 315.665,56.771 315.665 C 56.153 315.665,52.020 319.813,52.020 320.433 C 52.021 321.356,53.829 323.153,54.757 323.153 C 55.576 323.153,58.719 320.344,58.719 319.612 C 58.719 319.434,59.207 319.114,59.803 318.900 C 61.204 318.397,65.813 313.968,65.813 313.124 C 65.813 312.172,64.018 310.542,62.974 310.544 C 62.376 310.546,61.237 311.415,59.620 313.106 M333.793 316.059 C 333.793 316.276,333.261 316.453,332.611 316.453 C 331.961 316.453,331.429 316.631,331.429 316.847 C 331.429 317.064,331.155 317.241,330.820 317.241 C 330.485 317.241,329.820 317.650,329.342 318.150 C 326.741 320.869,326.664 327.488,329.233 327.488 C 329.574 327.488,329.852 327.762,329.852 328.097 C 329.852 328.885,331.608 330.640,332.396 330.640 C 332.731 330.640,333.005 330.818,333.005 331.034 C 333.005 331.264,334.299 331.429,336.099 331.429 C 339.603 331.429,340.744 330.700,342.759 327.177 C 343.344 326.153,343.425 321.576,342.857 321.576 C 342.640 321.576,342.463 321.317,342.463 321.001 C 342.463 319.731,338.640 316.453,337.158 316.453 C 336.391 316.453,335.764 316.276,335.764 316.059 C 335.764 315.842,335.320 315.665,334.778 315.665 C 334.236 315.665,333.793 315.842,333.793 316.059 M335.764 320.604 C 335.764 320.937,335.187 321.798,334.483 322.518 C 333.778 323.237,332.941 324.207,332.622 324.672 C 331.746 325.951,331.429 325.701,331.429 323.730 C 331.429 321.480,332.599 320.060,334.483 320.024 C 335.381 320.007,335.764 320.180,335.764 320.604 M48.966 322.166 C 48.238 322.992,48.357 325.145,49.163 325.757 C 50.844 327.033,52.808 326.055,52.808 323.941 C 52.808 321.836,50.283 320.670,48.966 322.166 M339.704 324.571 C 339.704 325.610,337.389 327.488,336.107 327.488 L 334.957 327.488 336.641 325.743 C 338.364 323.958,339.704 323.445,339.704 324.571 M74.778 327.873 C 73.532 329.147,72.512 330.385,72.512 330.625 C 72.512 330.865,71.271 332.291,69.754 333.793 C 68.236 335.295,66.995 336.702,66.995 336.919 C 66.995 337.136,66.374 337.934,65.616 338.693 C 63.581 340.728,64.231 343.251,66.790 343.251 C 67.591 343.251,69.360 341.791,69.360 341.129 C 69.360 339.342,71.026 339.717,72.068 341.739 C 72.431 342.444,73.044 342.869,73.940 343.037 C 74.672 343.175,75.271 343.456,75.271 343.663 C 75.271 343.870,76.158 344.039,77.241 344.039 C 78.325 344.039,79.212 343.884,79.212 343.695 C 79.212 343.505,79.782 343.236,80.478 343.097 C 81.828 342.827,84.335 340.493,84.335 339.506 C 84.335 339.182,84.512 338.916,84.729 338.916 C 84.946 338.916,85.123 338.384,85.123 337.734 C 85.123 337.084,85.300 336.552,85.517 336.552 C 85.734 336.552,85.911 335.931,85.911 335.172 C 85.911 334.414,85.734 333.793,85.517 333.793 C 85.300 333.793,85.123 333.344,85.123 332.795 C 85.123 331.599,82.866 329.191,81.565 328.999 C 81.074 328.926,80.476 328.523,80.237 328.102 C 78.482 325.011,77.616 324.975,74.778 327.873 M80.609 333.184 C 82.099 334.674,81.813 335.835,79.323 338.399 C 76.963 340.830,73.721 339.644,74.292 336.559 C 74.433 335.796,74.711 335.113,74.910 335.041 C 75.108 334.969,75.271 334.734,75.271 334.520 C 75.271 333.920,76.325 333.005,77.016 333.005 C 77.357 333.005,77.635 332.828,77.635 332.611 C 77.635 331.842,79.656 332.231,80.609 333.184 M309.974 336.279 C 308.797 337.002,307.389 338.438,307.389 338.916 C 307.389 340.306,310.638 341.978,311.033 340.792 C 311.195 340.307,312.512 341.271,312.512 341.875 C 312.512 342.016,313.222 342.812,314.089 343.645 C 315.583 345.081,316.287 347.192,315.271 347.192 C 314.673 347.192,314.800 349.142,315.440 349.782 C 316.082 350.424,317.635 350.544,317.635 349.951 C 317.635 349.207,318.399 349.558,319.777 350.936 C 321.345 352.504,321.813 352.610,322.712 351.598 C 323.063 351.204,323.690 350.755,324.105 350.600 C 324.681 350.386,324.751 350.210,324.401 349.859 C 324.148 349.606,323.941 349.145,323.941 348.834 C 323.941 348.524,323.542 347.915,323.054 347.481 C 322.453 346.946,322.326 346.635,322.660 346.515 C 323.242 346.306,323.333 344.039,322.759 344.039 C 322.542 344.039,322.365 343.758,322.365 343.414 C 322.365 342.939,322.011 342.811,320.887 342.878 C 318.743 343.007,318.424 342.926,318.424 342.249 C 318.424 341.681,318.172 341.283,316.946 339.916 C 316.675 339.614,316.453 339.221,316.453 339.043 C 316.452 338.412,314.579 336.552,313.944 336.552 C 313.590 336.552,313.300 336.374,313.300 336.158 C 313.300 335.616,310.912 335.703,309.974 336.279 M99.419 343.941 C 99.275 344.320,98.926 344.865,98.643 345.151 C 98.360 345.438,98.128 346.014,98.128 346.432 C 98.128 346.850,97.951 347.192,97.734 347.192 C 97.517 347.192,97.340 347.482,97.340 347.836 C 97.340 348.189,97.016 348.766,96.620 349.116 C 96.225 349.467,95.649 350.330,95.342 351.034 C 95.035 351.739,94.649 352.315,94.485 352.315 C 93.698 352.315,94.184 357.656,95.024 358.238 C 95.484 358.557,96.092 359.039,96.375 359.310 C 96.658 359.581,97.171 359.803,97.514 359.803 C 98.383 359.803,99.691 360.593,100.936 361.872 C 102.252 363.224,104.393 363.391,104.713 362.167 C 104.827 361.734,105.076 361.379,105.268 361.379 C 105.459 361.379,105.616 361.037,105.616 360.619 C 105.616 360.201,105.882 359.593,106.207 359.268 C 106.532 358.943,106.798 358.487,106.798 358.255 C 106.798 358.023,106.975 357.833,107.192 357.833 C 107.409 357.833,107.586 357.517,107.586 357.131 C 107.586 356.746,107.941 356.175,108.374 355.862 C 108.808 355.550,109.163 355.018,109.163 354.680 C 109.163 354.342,109.517 353.810,109.951 353.498 C 110.384 353.185,110.739 352.614,110.739 352.228 C 110.739 351.843,110.916 351.527,111.133 351.527 C 111.350 351.527,111.527 351.084,111.527 350.542 C 111.527 349.819,111.317 349.557,110.739 349.557 C 110.305 349.557,109.951 349.379,109.951 349.163 C 109.951 347.786,107.213 348.838,106.362 350.542 C 105.875 351.517,105.330 352.315,105.152 352.315 C 104.973 352.315,104.828 352.631,104.828 353.016 C 104.828 353.402,104.473 353.973,104.039 354.286 C 103.606 354.598,103.251 355.093,103.251 355.386 C 103.251 356.294,102.181 357.044,100.887 357.044 C 100.205 357.044,99.395 356.791,99.085 356.481 C 98.445 355.842,98.318 353.892,98.916 353.892 C 99.133 353.892,99.310 353.537,99.310 353.103 C 99.310 352.670,99.488 352.315,99.704 352.315 C 99.921 352.315,100.099 352.003,100.099 351.622 C 100.099 351.241,100.453 350.707,100.887 350.436 C 101.320 350.166,101.675 349.719,101.675 349.443 C 101.675 349.168,102.030 348.687,102.463 348.374 C 103.371 347.720,103.546 345.460,102.750 344.665 C 101.345 343.260,99.803 342.925,99.419 343.941 M293.202 348.374 C 293.202 348.591,292.847 348.768,292.414 348.768 C 291.786 348.768,291.626 349.031,291.626 350.061 C 291.626 350.901,291.901 351.552,292.414 351.921 C 292.847 352.234,293.202 352.805,293.202 353.190 C 293.202 353.576,293.379 353.892,293.596 353.892 C 293.813 353.892,293.990 354.236,293.990 354.657 C 293.990 355.077,294.163 355.528,294.374 355.659 C 294.585 355.789,295.063 356.553,295.437 357.357 C 295.811 358.160,296.437 359.105,296.827 359.455 C 297.218 359.806,297.537 360.306,297.537 360.567 C 297.537 361.366,298.608 362.167,299.676 362.167 C 300.234 362.167,300.690 361.990,300.690 361.773 C 300.690 361.557,300.956 361.379,301.281 361.379 C 301.691 361.379,301.872 360.966,301.872 360.028 C 301.872 359.285,301.606 358.411,301.281 358.086 C 300.956 357.761,300.690 357.216,300.690 356.875 C 300.690 356.535,300.512 356.256,300.296 356.256 C 300.079 356.256,299.901 355.941,299.901 355.555 C 299.901 355.169,299.547 354.598,299.113 354.286 C 298.680 353.973,298.325 353.402,298.325 353.016 C 298.325 352.631,298.148 352.315,297.931 352.315 C 297.714 352.315,297.537 352.088,297.537 351.811 C 297.537 351.534,297.182 351.051,296.749 350.739 C 296.315 350.426,295.961 349.931,295.961 349.639 C 295.961 349.346,295.707 348.853,295.398 348.543 C 294.755 347.901,293.202 347.781,293.202 348.374 M275.862 357.438 C 275.862 357.655,275.406 357.833,274.849 357.833 C 273.810 357.833,272.709 358.629,272.709 359.381 C 272.709 359.613,272.887 359.803,273.103 359.803 C 273.320 359.803,273.498 360.158,273.498 360.591 C 273.498 361.025,273.675 361.379,273.892 361.379 C 274.108 361.379,274.286 361.734,274.286 362.167 C 274.286 362.601,274.463 362.956,274.680 362.956 C 274.897 362.956,275.074 363.275,275.074 363.665 C 275.074 364.546,275.955 366.495,276.355 366.499 C 277.042 366.507,276.573 368.586,275.683 369.476 C 274.216 370.943,271.921 370.496,271.921 368.743 C 271.921 368.427,271.656 367.661,271.332 367.040 C 271.009 366.419,270.743 365.601,270.741 365.222 C 270.740 364.842,270.562 364.532,270.345 364.532 C 270.128 364.532,269.951 364.205,269.951 363.804 C 269.951 362.337,268.757 360.591,267.754 360.591 C 267.228 360.591,266.798 360.768,266.798 360.985 C 266.798 361.202,266.519 361.379,266.179 361.379 C 265.838 361.379,265.306 361.633,264.996 361.942 C 264.351 362.588,264.242 363.744,264.828 363.744 C 265.044 363.744,265.222 364.099,265.222 364.532 C 265.222 364.966,265.399 365.320,265.616 365.320 C 265.833 365.320,266.010 365.764,266.010 366.305 C 266.010 366.847,266.187 367.291,266.404 367.291 C 266.621 367.291,266.798 367.645,266.798 368.079 C 266.798 368.512,266.975 368.867,267.192 368.867 C 267.409 368.867,267.586 369.222,267.586 369.655 C 267.586 370.089,267.764 370.443,267.980 370.443 C 268.197 370.443,268.374 370.904,268.374 371.468 C 268.374 375.141,277.128 376.129,278.479 372.609 C 278.619 372.243,279.223 372.020,280.070 372.020 C 280.821 372.020,281.689 371.766,281.999 371.457 C 282.638 370.817,282.766 368.867,282.167 368.867 C 281.951 368.867,281.773 368.512,281.773 368.079 C 281.773 367.645,281.596 367.291,281.379 367.291 C 281.163 367.291,280.985 367.025,280.985 366.700 C 280.985 366.374,280.808 366.108,280.591 366.108 C 280.374 366.108,280.197 365.576,280.197 364.926 C 280.197 364.276,280.020 363.744,279.803 363.744 C 279.586 363.744,279.409 363.389,279.409 362.956 C 279.409 362.522,279.255 362.167,279.067 362.167 C 278.878 362.167,278.624 361.418,278.501 360.501 C 278.378 359.585,278.089 358.772,277.858 358.695 C 277.627 358.618,277.438 358.215,277.438 357.800 C 277.438 357.307,277.164 357.044,276.650 357.044 C 276.217 357.044,275.862 357.222,275.862 357.438 M123.350 358.785 C 123.350 359.309,123.571 359.819,123.842 359.918 C 124.236 360.062,124.236 360.203,123.842 360.621 C 123.571 360.908,123.350 361.551,123.350 362.049 C 123.350 362.548,123.172 362.956,122.956 362.956 C 122.739 362.956,122.562 363.275,122.562 363.665 C 122.562 364.055,122.353 364.583,122.097 364.839 C 121.842 365.094,121.559 366.770,121.469 368.563 L 121.305 371.823 122.736 373.195 C 124.916 375.285,132.414 375.406,132.414 373.351 C 132.414 373.052,132.591 372.808,132.808 372.808 C 133.025 372.808,133.202 372.276,133.202 371.626 C 133.202 370.575,133.071 370.443,132.020 370.443 C 131.369 370.443,130.837 370.266,130.837 370.049 C 130.837 369.833,131.464 369.655,132.230 369.655 C 135.733 369.655,137.908 364.079,135.387 361.558 C 134.855 361.026,134.146 360.591,133.811 360.591 C 133.476 360.591,133.202 360.414,133.202 360.197 C 133.202 359.980,132.269 359.803,131.129 359.803 C 129.464 359.803,128.847 359.609,127.993 358.818 C 126.457 357.393,123.350 357.371,123.350 358.785 M300.370 362.783 C 299.462 363.811,299.943 365.799,301.199 366.215 C 303.373 366.935,304.236 366.342,304.236 364.130 L 304.236 362.167 302.562 362.182 C 301.591 362.191,300.669 362.444,300.370 362.783 M130.559 363.448 C 132.961 364.564,132.023 366.113,128.966 366.077 C 127.502 366.060,126.527 365.957,126.798 365.847 C 127.069 365.738,127.291 365.453,127.291 365.214 C 127.291 364.746,128.845 362.956,129.251 362.956 C 129.387 362.956,129.975 363.177,130.559 363.448 M241.970 364.138 C 241.970 364.355,241.389 364.532,240.678 364.532 C 239.838 364.532,239.187 364.808,238.818 365.320 C 238.505 365.754,237.934 366.108,237.548 366.108 C 237.163 366.108,236.847 366.374,236.847 366.700 C 236.847 367.025,236.670 367.291,236.453 367.291 C 236.223 367.291,236.059 368.604,236.059 370.443 C 236.059 372.282,236.223 373.596,236.453 373.596 C 236.670 373.596,236.847 374.394,236.847 375.369 C 236.847 376.345,237.025 377.143,237.241 377.143 C 237.458 377.143,237.635 377.852,237.635 378.719 C 237.635 379.586,237.813 380.296,238.030 380.296 C 238.246 380.296,238.424 380.916,238.424 381.675 C 238.424 382.433,238.601 383.054,238.818 383.054 C 239.034 383.054,239.212 383.586,239.212 384.236 C 239.212 385.025,239.409 385.419,239.803 385.419 C 240.128 385.419,240.394 385.241,240.394 385.025 C 240.394 384.808,241.103 384.631,241.970 384.631 C 242.837 384.631,243.547 384.453,243.547 384.236 C 243.547 384.020,244.522 383.842,245.714 383.842 C 246.906 383.842,247.882 383.665,247.882 383.448 C 247.882 383.232,248.155 383.054,248.490 383.054 C 249.110 383.054,249.691 382.658,251.053 381.305 C 251.906 380.459,252.240 373.596,251.429 373.596 C 251.212 373.596,251.034 373.324,251.034 372.992 C 251.034 372.659,250.420 371.773,249.668 371.021 C 248.917 370.270,248.030 369.655,247.698 369.655 C 247.366 369.655,247.094 369.478,247.094 369.261 C 247.094 369.044,247.372 368.867,247.713 368.867 C 248.521 368.867,249.458 367.914,249.458 367.094 C 249.458 366.273,248.521 365.320,247.713 365.320 C 247.372 365.320,247.094 365.143,247.094 364.926 C 247.094 364.709,246.650 364.532,246.108 364.532 C 245.567 364.532,245.123 364.355,245.123 364.138 C 245.123 363.921,244.414 363.744,243.547 363.744 C 242.680 363.744,241.970 363.921,241.970 364.138 M244.560 367.854 C 245.324 368.617,245.268 368.867,244.335 368.867 C 243.901 368.867,243.547 369.044,243.547 369.261 C 243.547 369.478,243.015 369.655,242.365 369.655 C 241.714 369.655,241.182 369.833,241.182 370.049 C 241.182 370.266,240.828 370.443,240.394 370.443 C 239.961 370.443,239.606 370.347,239.606 370.228 C 239.606 369.749,241.582 368.079,242.150 368.079 C 242.485 368.079,242.759 367.901,242.759 367.685 C 242.759 367.099,243.914 367.208,244.560 367.854 M155.665 369.261 C 155.665 369.911,155.488 370.443,155.271 370.443 C 155.054 370.443,154.877 371.153,154.877 372.020 C 154.877 372.887,154.700 373.596,154.483 373.596 C 154.266 373.596,154.083 374.172,154.076 374.877 C 154.061 376.296,152.927 377.931,151.957 377.931 C 151.612 377.931,151.330 378.108,151.330 378.325 C 151.330 378.542,150.975 378.719,150.542 378.719 C 150.108 378.719,149.754 378.542,149.754 378.325 C 149.754 378.108,149.399 377.931,148.966 377.931 C 148.352 377.931,148.177 378.194,148.177 379.113 C 148.177 379.764,148.000 380.296,147.783 380.296 C 147.567 380.296,147.389 380.739,147.389 381.281 C 147.389 382.238,147.468 382.266,150.148 382.266 C 151.724 382.266,152.906 382.435,152.906 382.660 C 152.906 382.877,153.172 383.054,153.498 383.054 C 153.823 383.054,154.089 383.232,154.089 383.448 C 154.089 383.665,154.621 383.842,155.271 383.842 C 156.190 383.842,156.453 383.667,156.453 383.054 C 156.453 382.621,156.631 382.266,156.847 382.266 C 157.064 382.266,157.241 381.645,157.241 380.887 C 157.241 380.128,157.419 379.507,157.635 379.507 C 157.852 379.507,158.030 378.798,158.030 377.931 C 158.030 377.064,158.207 376.355,158.424 376.355 C 158.640 376.355,158.818 375.734,158.818 374.975 C 158.818 374.217,158.995 373.596,159.212 373.596 C 159.429 373.596,159.606 372.922,159.606 372.099 C 159.606 371.275,159.803 370.404,160.044 370.162 C 160.668 369.539,160.122 368.867,158.992 368.867 C 158.462 368.867,158.030 368.690,158.030 368.473 C 158.030 368.256,157.498 368.079,156.847 368.079 C 155.796 368.079,155.665 368.210,155.665 369.261 M129.120 369.458 C 129.646 369.984,129.646 370.115,129.120 370.640 C 127.968 371.792,125.714 371.029,125.714 369.486 C 125.714 368.663,128.304 368.642,129.120 369.458 M178.128 373.202 C 178.128 373.419,177.773 373.596,177.340 373.596 C 176.906 373.596,176.552 373.773,176.552 373.990 C 176.552 374.207,176.286 374.384,175.961 374.384 C 175.635 374.384,175.369 374.650,175.369 374.975 C 175.369 375.300,175.192 375.567,174.975 375.567 C 174.759 375.567,174.581 376.099,174.581 376.749 C 174.581 377.399,174.404 377.931,174.187 377.931 C 173.057 377.931,174.007 381.347,175.528 382.754 C 176.264 383.435,176.262 383.462,175.430 384.184 C 174.963 384.589,174.581 385.210,174.581 385.563 C 174.581 385.917,174.404 386.207,174.187 386.207 C 173.970 386.207,173.793 387.005,173.793 387.980 C 173.793 388.956,173.970 389.754,174.187 389.754 C 174.404 389.754,174.581 390.028,174.581 390.363 C 174.581 391.227,176.369 392.906,177.289 392.906 C 177.714 392.906,178.122 393.057,178.194 393.241 C 178.266 393.425,180.852 393.694,183.941 393.838 L 189.557 394.100 189.557 391.753 C 189.557 390.462,189.734 389.297,189.951 389.163 C 190.170 389.027,190.345 387.196,190.345 385.025 C 190.345 382.853,190.519 381.022,190.739 380.887 C 190.956 380.753,191.133 379.058,191.133 377.120 L 191.133 373.596 187.389 373.596 C 185.156 373.596,183.645 373.437,183.645 373.202 C 183.645 372.977,182.463 372.808,180.887 372.808 C 179.310 372.808,178.128 372.977,178.128 373.202 M245.123 373.175 C 245.123 373.378,245.444 373.645,245.837 373.769 C 248.530 374.624,248.014 380.296,245.242 380.296 C 243.630 380.296,241.970 378.822,241.970 377.391 C 241.970 376.857,241.749 376.330,241.478 376.220 C 241.159 376.091,241.124 375.906,241.379 375.695 C 241.596 375.516,241.969 375.015,242.208 374.581 C 242.447 374.148,243.023 373.736,243.489 373.667 C 243.954 373.598,244.335 373.376,244.335 373.175 C 244.335 372.973,244.512 372.808,244.729 372.808 C 244.946 372.808,245.123 372.973,245.123 373.175 M186.404 377.908 C 186.404 378.328,186.227 378.782,186.010 378.916 C 185.793 379.050,185.616 379.848,185.616 380.690 L 185.616 382.220 182.764 381.981 C 179.128 381.676,177.619 379.766,179.409 377.732 C 180.260 376.766,186.404 376.920,186.404 377.908 M182.857 385.813 C 182.857 386.030,183.478 386.207,184.236 386.207 C 185.564 386.207,186.042 386.685,185.222 387.192 C 185.005 387.326,184.828 388.046,184.828 388.792 C 184.828 390.079,184.757 390.148,183.448 390.148 C 182.690 390.148,182.069 389.970,182.069 389.754 C 182.069 389.537,181.613 389.360,181.056 389.360 C 179.218 389.360,178.229 387.348,179.409 386.008 C 179.968 385.374,182.857 385.210,182.857 385.813 " stroke="none" fill="#f9f9f9" fill-rule="evenodd"></path><path id="path1" d="M188.973 204.915 C 188.703 205.351,190.330 205.851,191.365 205.651 C 191.743 205.577,192.127 205.296,192.217 205.025 C 192.416 204.427,189.338 204.323,188.973 204.915 M186.043 206.956 C 185.158 207.859,184.433 208.803,184.433 209.052 C 184.433 209.302,184.041 209.928,183.560 210.444 C 182.843 211.214,182.813 211.333,183.395 211.109 C 183.785 210.960,184.178 210.837,184.269 210.837 C 184.359 210.837,184.433 210.571,184.433 210.246 C 184.433 209.921,184.611 209.655,184.828 209.655 C 185.044 209.655,185.222 209.464,185.222 209.230 C 185.222 208.996,185.933 208.122,186.803 207.286 C 187.673 206.450,188.219 205.665,188.018 205.541 C 187.817 205.416,186.928 206.053,186.043 206.956 M193.103 205.714 C 193.103 205.931,193.365 206.108,193.685 206.108 C 194.006 206.108,194.558 206.552,194.913 207.094 C 195.268 207.635,195.716 208.079,195.907 208.079 C 196.548 208.079,196.267 207.265,195.289 206.288 C 194.310 205.308,193.103 204.992,193.103 205.714 M196.168 208.693 C 195.851 209.010,196.283 210.443,196.696 210.443 C 196.888 210.443,197.044 210.000,197.044 209.458 C 197.044 208.531,196.663 208.198,196.168 208.693 M196.256 213.160 C 196.256 213.570,195.979 214.012,195.640 214.142 C 195.301 214.272,195.122 214.538,195.242 214.732 C 195.363 214.927,194.899 215.635,194.212 216.307 C 193.525 216.978,193.067 217.632,193.194 217.759 C 193.521 218.086,195.468 216.318,195.468 215.692 C 195.468 215.406,195.645 215.172,195.862 215.172 C 196.079 215.172,196.256 214.906,196.256 214.581 C 196.256 214.256,196.433 213.990,196.650 213.990 C 196.867 213.990,197.044 213.635,197.044 213.202 C 197.044 212.768,196.867 212.414,196.650 212.414 C 196.433 212.414,196.256 212.749,196.256 213.160 M181.036 213.768 C 180.629 214.645,180.653 214.685,181.331 214.261 C 181.737 214.008,182.069 213.577,182.069 213.304 C 182.069 212.493,181.510 212.744,181.036 213.768 M178.482 217.061 C 177.702 218.081,176.832 219.360,176.549 219.901 C 176.266 220.443,175.707 221.174,175.308 221.524 C 174.530 222.206,174.373 222.660,174.915 222.660 C 175.467 222.660,176.946 221.225,176.946 220.690 C 176.946 220.415,177.307 219.878,177.748 219.496 C 178.188 219.113,178.499 218.632,178.437 218.426 C 178.376 218.220,178.895 217.516,179.592 216.861 C 180.289 216.206,180.747 215.558,180.610 215.421 C 180.172 214.983,179.929 215.170,178.482 217.061 M191.989 219.152 C 191.705 219.606,191.565 220.071,191.678 220.184 C 191.948 220.454,193.103 219.290,193.103 218.747 C 193.103 218.061,192.543 218.264,191.989 219.152 M190.246 221.623 C 189.650 222.135,189.163 222.742,189.163 222.971 C 189.163 223.200,188.697 223.941,188.128 224.617 C 187.559 225.293,187.209 225.961,187.349 226.101 C 187.489 226.241,187.999 225.844,188.482 225.217 C 188.965 224.591,189.714 223.695,190.148 223.226 C 192.135 221.077,192.205 219.938,190.246 221.623 M171.232 227.010 C 170.581 227.865,169.739 228.948,169.360 229.417 C 168.022 231.068,168.775 231.558,170.175 229.948 C 170.648 229.404,171.034 228.816,171.034 228.639 C 171.034 228.463,171.478 227.934,172.020 227.463 C 172.941 226.662,173.372 225.396,172.709 225.437 C 172.547 225.447,171.882 226.155,171.232 227.010 M136.617 226.470 C 136.118 226.969,136.358 227.389,137.143 227.389 C 137.581 227.389,137.931 227.126,137.931 226.798 C 137.931 226.198,137.097 225.990,136.617 226.470 M138.815 226.700 C 138.904 226.970,139.495 227.249,140.129 227.318 C 140.762 227.387,141.958 227.981,142.785 228.638 C 144.416 229.934,144.988 229.922,144.168 228.608 C 143.222 227.093,138.377 225.365,138.815 226.700 M185.617 227.979 C 184.379 229.297,184.900 229.717,186.183 228.434 C 186.738 227.879,187.192 227.328,187.192 227.210 C 187.192 226.713,186.480 227.061,185.617 227.979 M133.671 229.042 C 132.735 230.556,132.150 233.620,132.581 234.745 C 133.051 235.968,133.611 234.492,133.393 232.608 C 133.212 231.043,133.676 229.534,134.531 228.913 C 134.720 228.775,134.798 228.433,134.705 228.153 C 134.605 227.854,134.179 228.220,133.671 229.042 M183.744 230.343 C 183.473 230.651,183.251 231.105,183.251 231.352 C 183.251 231.600,182.706 232.312,182.039 232.934 C 181.372 233.557,180.935 234.241,181.066 234.455 C 181.198 234.668,180.864 235.132,180.323 235.486 C 179.783 235.840,179.221 236.509,179.073 236.973 C 178.926 237.437,178.299 238.290,177.679 238.869 C 176.527 239.946,176.293 240.394,176.886 240.394 C 177.410 240.394,178.916 238.971,178.916 238.476 C 178.916 238.230,179.094 238.030,179.310 238.030 C 179.527 238.030,179.704 237.803,179.704 237.525 C 179.704 237.248,180.059 236.766,180.493 236.453 C 180.926 236.141,181.281 235.703,181.281 235.480 C 181.281 235.256,182.079 234.057,183.054 232.815 C 184.737 230.672,185.191 229.735,184.532 229.769 C 184.369 229.777,184.015 230.035,183.744 230.343 M144.236 231.330 C 144.236 231.980,144.414 232.512,144.631 232.512 C 144.847 232.512,145.025 231.980,145.025 231.330 C 145.025 230.680,144.847 230.148,144.631 230.148 C 144.414 230.148,144.236 230.680,144.236 231.330 M167.882 231.899 C 167.882 232.212,167.493 232.740,167.019 233.072 C 166.544 233.404,166.267 233.788,166.404 233.924 C 166.702 234.223,168.670 232.328,168.670 231.742 C 168.670 231.515,168.493 231.330,168.276 231.330 C 168.059 231.330,167.882 231.586,167.882 231.899 M145.025 235.027 C 145.025 236.219,145.202 237.304,145.419 237.438 C 145.635 237.572,145.813 238.647,145.813 239.826 C 145.813 241.006,145.990 241.970,146.207 241.970 C 146.424 241.970,146.601 240.995,146.601 239.803 C 146.601 238.611,146.424 237.635,146.207 237.635 C 145.990 237.635,145.813 236.671,145.813 235.491 C 145.813 234.312,145.635 233.237,145.419 233.103 C 145.174 232.952,145.025 233.683,145.025 235.027 M165.191 235.309 C 164.907 235.764,164.771 236.233,164.889 236.351 C 165.211 236.673,166.305 235.649,166.305 235.026 C 166.305 234.230,165.781 234.363,165.191 235.309 M163.448 237.721 C 162.682 238.680,162.568 239.212,163.130 239.212 C 163.527 239.212,164.729 237.665,164.729 237.154 C 164.729 236.590,164.145 236.849,163.448 237.721 M133.202 238.818 C 133.202 239.468,133.367 240.000,133.570 240.000 C 134.048 240.000,134.507 238.546,134.189 238.033 C 133.707 237.253,133.202 237.655,133.202 238.818 M161.576 240.366 C 161.576 240.567,161.289 241.019,160.938 241.370 C 160.587 241.721,160.399 242.107,160.520 242.228 C 160.738 242.446,162.759 240.629,162.759 240.215 C 162.759 240.097,162.493 240.000,162.167 240.000 C 161.842 240.000,161.576 240.165,161.576 240.366 M133.990 243.547 C 133.990 244.197,134.167 244.729,134.384 244.729 C 134.601 244.729,134.778 244.197,134.778 243.547 C 134.778 242.897,134.601 242.365,134.384 242.365 C 134.167 242.365,133.990 242.897,133.990 243.547 M146.601 244.729 C 146.601 246.043,146.776 247.094,146.995 247.094 C 147.214 247.094,147.389 246.043,147.389 244.729 C 147.389 243.415,147.214 242.365,146.995 242.365 C 146.776 242.365,146.601 243.415,146.601 244.729 M158.928 244.025 C 158.446 244.714,158.125 245.350,158.214 245.439 C 158.451 245.676,160.394 243.655,160.394 243.171 C 160.394 242.419,159.814 242.757,158.928 244.025 M173.862 244.065 C 173.391 244.566,173.005 245.233,173.005 245.546 C 173.005 245.860,172.650 246.337,172.217 246.608 C 171.402 247.117,171.128 248.276,171.823 248.276 C 172.039 248.276,172.217 248.101,172.217 247.886 C 172.217 247.472,173.031 246.397,174.483 244.894 C 175.379 243.967,175.641 243.153,175.044 243.153 C 174.865 243.153,174.333 243.563,173.862 244.065 M156.946 246.501 C 156.675 246.809,156.453 247.334,156.453 247.668 C 156.453 248.002,156.292 248.276,156.096 248.276 C 155.700 248.276,152.906 252.023,152.906 252.553 C 152.906 252.737,152.359 253.461,151.690 254.161 C 151.021 254.860,150.584 255.543,150.719 255.678 C 150.985 255.944,152.906 254.033,152.906 253.503 C 152.906 253.325,153.261 252.923,153.695 252.611 C 154.128 252.298,154.483 251.798,154.483 251.500 C 154.483 251.201,154.973 250.486,155.573 249.912 C 156.172 249.337,156.920 248.335,157.235 247.685 C 157.550 247.034,157.872 246.369,157.951 246.207 C 158.199 245.699,157.463 245.914,156.946 246.501 M134.778 248.276 C 134.778 248.926,134.956 249.458,135.172 249.458 C 135.389 249.458,135.567 248.926,135.567 248.276 C 135.567 247.626,135.389 247.094,135.172 247.094 C 134.956 247.094,134.778 247.626,134.778 248.276 M147.389 249.435 C 147.389 250.506,147.541 251.476,147.726 251.590 C 147.911 251.705,148.160 253.211,148.278 254.938 C 148.541 258.768,148.782 259.255,149.785 257.981 C 150.759 256.743,150.747 256.178,149.754 256.438 C 149.035 256.625,148.966 256.450,148.966 254.453 C 148.966 253.249,148.788 252.154,148.571 252.020 C 148.355 251.886,148.177 250.811,148.177 249.632 C 148.177 248.453,148.000 247.488,147.783 247.488 C 147.567 247.488,147.389 248.364,147.389 249.435 M169.905 249.522 C 168.689 251.030,169.103 251.425,170.468 250.061 C 171.049 249.479,171.371 248.860,171.181 248.684 C 170.992 248.509,170.418 248.886,169.905 249.522 M168.177 251.977 C 167.798 252.265,167.488 252.772,167.488 253.103 C 167.488 253.434,166.957 254.123,166.309 254.635 C 165.052 255.629,164.813 256.158,165.621 256.158 C 165.894 256.158,166.460 255.703,166.877 255.147 C 167.294 254.592,167.957 253.767,168.350 253.314 C 168.743 252.861,169.064 252.251,169.064 251.959 C 169.064 251.318,169.045 251.318,168.177 251.977 M135.567 252.785 C 135.567 253.314,135.744 253.856,135.961 253.990 C 136.191 254.132,136.355 253.732,136.355 253.028 C 136.355 252.365,136.177 251.823,135.961 251.823 C 135.744 251.823,135.567 252.256,135.567 252.785 M136.355 257.711 C 136.355 258.348,136.532 258.979,136.749 259.113 C 136.983 259.258,137.143 258.789,137.143 257.954 C 137.143 257.183,136.966 256.552,136.749 256.552 C 136.532 256.552,136.355 257.073,136.355 257.711 M164.039 257.624 C 163.168 258.630,162.911 259.310,163.402 259.310 C 163.730 259.310,165.516 257.229,165.517 256.847 C 165.518 256.290,164.925 256.601,164.039 257.624 M161.675 260.700 C 160.832 261.600,160.514 262.463,161.024 262.463 C 161.277 262.463,163.547 260.120,163.547 259.860 C 163.547 259.386,162.441 259.882,161.675 260.700 M182.266 261.281 C 182.111 261.532,183.252 261.675,185.409 261.675 C 188.937 261.675,191.527 263.087,191.527 265.011 C 191.527 265.344,191.704 265.616,191.921 265.616 C 192.821 265.616,192.209 264.057,190.709 262.526 L 189.102 260.887 185.806 260.887 C 183.993 260.887,182.400 261.064,182.266 261.281 M137.143 262.440 C 137.143 263.077,137.320 263.708,137.537 263.842 C 137.771 263.987,137.931 263.518,137.931 262.683 C 137.931 261.912,137.754 261.281,137.537 261.281 C 137.320 261.281,137.143 261.802,137.143 262.440 M177.182 262.133 C 177.483 262.620,181.675 262.541,181.675 262.048 C 181.675 261.795,180.761 261.667,179.327 261.718 C 178.035 261.765,177.070 261.952,177.182 262.133 M172.611 262.857 C 172.611 263.074,173.586 263.251,174.778 263.251 C 175.970 263.251,176.946 263.074,176.946 262.857 C 176.946 262.640,175.970 262.463,174.778 262.463 C 173.586 262.463,172.611 262.640,172.611 262.857 M159.622 263.534 C 159.147 264.070,159.140 264.213,159.584 264.360 C 159.950 264.482,159.819 264.705,159.173 265.063 C 158.286 265.555,158.355 265.589,160.272 265.602 C 161.397 265.609,162.428 265.438,162.562 265.222 C 162.696 265.005,163.859 264.828,165.146 264.828 C 166.640 264.828,167.488 264.665,167.488 264.377 C 167.488 264.052,166.489 264.002,163.909 264.196 C 160.428 264.459,160.337 264.445,160.586 263.662 C 160.891 262.700,160.419 262.637,159.622 263.534 M167.882 263.645 C 167.882 263.862,168.857 264.039,170.049 264.039 C 171.241 264.039,172.217 263.862,172.217 263.645 C 172.217 263.429,171.241 263.251,170.049 263.251 C 168.857 263.251,167.882 263.429,167.882 263.645 M137.609 267.063 C 137.791 268.597,138.719 268.733,138.719 267.225 C 138.719 266.385,138.529 266.010,138.102 266.010 C 137.664 266.010,137.521 266.317,137.609 267.063 M192.315 266.995 C 192.315 267.320,192.493 267.586,192.709 267.586 C 192.926 267.586,193.103 267.320,193.103 266.995 C 193.103 266.670,192.926 266.404,192.709 266.404 C 192.493 266.404,192.315 266.670,192.315 266.995 M191.527 269.180 C 191.527 270.019,189.899 271.921,189.180 271.921 C 188.954 271.921,188.768 272.099,188.768 272.315 C 188.768 273.410,191.071 272.042,191.875 270.469 C 192.422 269.401,192.444 268.374,191.921 268.374 C 191.704 268.374,191.527 268.737,191.527 269.180 M138.393 271.693 C 138.464 272.266,138.700 272.728,138.916 272.722 C 139.506 272.703,139.392 271.029,138.787 270.827 C 138.422 270.706,138.303 270.967,138.393 271.693 M184.828 273.103 C 184.828 273.320,185.360 273.498,186.010 273.498 C 186.660 273.498,187.192 273.320,187.192 273.103 C 187.192 272.887,186.660 272.709,186.010 272.709 C 185.360 272.709,184.828 272.887,184.828 273.103 M180.099 273.892 C 180.099 274.108,180.631 274.286,181.281 274.286 C 181.931 274.286,182.463 274.108,182.463 273.892 C 182.463 273.675,181.931 273.498,181.281 273.498 C 180.631 273.498,180.099 273.675,180.099 273.892 M175.369 274.680 C 175.369 274.897,175.901 275.074,176.552 275.074 C 177.202 275.074,177.734 274.897,177.734 274.680 C 177.734 274.463,177.202 274.286,176.552 274.286 C 175.901 274.286,175.369 274.463,175.369 274.680 M139.313 275.764 C 139.469 276.143,139.683 276.751,139.788 277.116 C 140.039 277.987,141.084 278.385,141.084 277.609 C 141.084 276.840,139.925 275.074,139.420 275.074 C 139.202 275.074,139.155 275.379,139.313 275.764 M170.640 275.468 C 170.640 275.685,171.073 275.862,171.602 275.862 C 172.131 275.862,172.674 275.685,172.808 275.468 C 172.950 275.238,172.549 275.074,171.846 275.074 C 171.183 275.074,170.640 275.251,170.640 275.468 M166.389 275.769 C 166.126 275.856,165.911 276.090,165.911 276.289 C 165.911 276.753,168.159 276.763,168.445 276.301 C 168.683 275.916,167.144 275.517,166.389 275.769 M161.445 276.519 C 160.913 277.051,161.208 277.438,162.144 277.438 C 163.295 277.438,163.795 276.830,162.921 276.494 C 162.122 276.188,161.770 276.194,161.445 276.519 M156.716 277.307 C 156.184 277.839,156.479 278.227,157.415 278.227 C 158.566 278.227,159.066 277.618,158.192 277.283 C 157.393 276.976,157.041 276.982,156.716 277.307 M141.765 278.071 C 141.271 278.565,141.444 278.873,142.482 279.346 C 143.979 280.028,144.858 279.961,144.236 279.212 C 143.967 278.887,143.428 278.621,143.039 278.621 C 142.650 278.621,142.269 278.432,142.192 278.202 C 142.115 277.972,141.923 277.913,141.765 278.071 M151.724 278.424 C 151.724 279.042,152.409 279.181,153.463 278.776 C 154.337 278.441,153.836 277.833,152.686 277.833 C 152.094 277.833,151.724 278.060,151.724 278.424 M146.851 279.215 C 146.652 279.735,146.843 279.830,147.885 279.729 C 149.349 279.588,149.458 278.877,148.043 278.698 C 147.452 278.623,147.004 278.818,146.851 279.215 " stroke="none" fill="#949494" fill-rule="evenodd"></path><path id="path2" d="M189.557 0.985 C 189.557 1.527,189.734 1.970,189.951 1.970 C 190.167 1.970,190.345 2.325,190.345 2.759 C 190.345 3.192,190.522 3.547,190.739 3.547 C 190.956 3.547,191.133 3.990,191.133 4.532 C 191.133 5.074,191.310 5.517,191.527 5.517 C 191.744 5.517,191.922 6.005,191.924 6.601 C 191.925 7.197,192.191 8.193,192.515 8.814 C 192.839 9.434,193.103 10.266,193.103 10.662 C 193.103 11.058,193.281 11.492,193.498 11.626 C 193.714 11.760,193.892 12.226,193.892 12.662 C 193.892 13.990,194.863 14.581,197.044 14.581 C 199.542 14.581,200.078 14.089,200.425 11.477 C 200.572 10.366,200.847 9.458,201.036 9.458 C 201.225 9.458,201.379 8.926,201.379 8.276 C 201.379 7.626,201.557 7.094,201.773 7.094 C 201.990 7.094,202.167 6.562,202.167 5.911 C 202.167 5.261,202.345 4.729,202.562 4.729 C 202.778 4.729,202.956 4.286,202.956 3.744 C 202.956 3.202,203.133 2.759,203.350 2.759 C 203.567 2.759,203.744 2.138,203.744 1.379 L 203.744 0.000 201.576 0.000 L 199.409 0.000 199.409 1.379 C 199.409 2.138,199.232 2.759,199.015 2.759 C 198.798 2.759,198.621 3.202,198.621 3.744 C 198.621 4.286,198.443 4.729,198.227 4.729 C 198.010 4.729,197.833 5.261,197.833 5.911 C 197.833 6.831,197.657 7.094,197.044 7.094 C 196.471 7.094,196.256 6.831,196.256 6.132 C 196.256 5.603,196.079 5.060,195.862 4.926 C 195.645 4.792,195.468 4.250,195.468 3.721 C 195.468 3.192,195.291 2.759,195.074 2.759 C 194.857 2.759,194.680 2.246,194.680 1.619 C 194.680 0.271,194.147 0.000,191.495 0.000 C 189.690 0.000,189.557 0.068,189.557 0.985 M223.448 1.576 C 223.448 1.793,223.094 1.970,222.660 1.970 C 222.227 1.970,221.872 2.148,221.872 2.365 C 221.872 2.581,221.550 2.759,221.157 2.759 C 220.706 2.759,220.243 3.268,219.901 4.138 C 219.604 4.897,219.216 5.517,219.040 5.517 C 218.863 5.517,218.719 7.297,218.719 9.471 L 218.719 13.425 220.085 14.791 C 220.837 15.543,221.723 16.158,222.056 16.158 C 222.388 16.158,222.660 16.335,222.660 16.552 C 222.660 17.363,229.523 17.029,230.369 16.177 C 231.857 14.678,232.118 14.207,232.118 13.022 C 232.118 12.362,232.296 11.823,232.512 11.823 C 232.746 11.823,232.906 10.378,232.906 8.276 C 232.906 6.174,232.746 4.729,232.512 4.729 C 232.296 4.729,232.118 4.539,232.118 4.307 C 232.118 3.761,231.116 2.759,230.570 2.759 C 230.338 2.759,230.148 2.581,230.148 2.365 C 230.148 2.148,229.793 1.970,229.360 1.970 C 228.926 1.970,228.571 1.793,228.571 1.576 C 228.571 1.354,227.455 1.182,226.010 1.182 C 224.565 1.182,223.448 1.354,223.448 1.576 M252.611 2.538 C 252.611 3.284,252.433 4.004,252.217 4.138 C 252.000 4.272,251.823 4.814,251.823 5.343 C 251.823 5.873,251.645 6.305,251.429 6.305 C 251.212 6.305,251.034 7.015,251.034 7.882 C 251.034 8.749,250.857 9.458,250.640 9.458 C 250.424 9.458,250.246 9.990,250.246 10.640 C 250.246 11.291,250.069 11.823,249.852 11.823 C 249.635 11.823,249.458 12.443,249.458 13.202 C 249.458 13.961,249.281 14.581,249.064 14.581 C 248.847 14.581,248.670 15.078,248.670 15.685 C 248.670 16.292,248.516 16.957,248.327 17.163 C 247.358 18.220,247.472 21.281,248.480 21.281 C 249.018 21.281,249.458 21.458,249.458 21.675 C 249.458 21.892,249.990 22.069,250.640 22.069 C 251.560 22.069,251.823 21.894,251.823 21.281 C 251.823 20.847,252.000 20.493,252.217 20.493 C 252.433 20.493,252.611 19.872,252.611 19.113 C 252.611 18.355,252.788 17.734,253.005 17.734 C 253.222 17.734,253.399 17.212,253.399 16.575 C 253.399 15.938,253.576 15.306,253.793 15.172 C 254.010 15.038,254.187 14.319,254.187 13.573 C 254.187 12.827,254.344 12.217,254.535 12.217 C 254.727 12.217,255.007 11.064,255.158 9.655 C 255.309 8.246,255.595 7.094,255.795 7.094 C 255.994 7.094,256.158 6.384,256.158 5.517 C 256.158 4.650,256.335 3.941,256.552 3.941 C 256.768 3.941,256.946 3.498,256.946 2.956 C 256.946 2.124,256.762 1.970,255.764 1.970 C 255.113 1.970,254.581 1.793,254.581 1.576 C 254.581 1.360,254.138 1.182,253.596 1.182 C 252.736 1.182,252.611 1.355,252.611 2.538 M165.517 2.365 C 165.517 2.581,165.163 2.759,164.729 2.759 C 164.296 2.759,163.941 2.936,163.941 3.153 C 163.941 3.369,163.662 3.547,163.322 3.547 C 161.433 3.547,159.530 11.787,161.182 12.808 C 161.399 12.942,161.576 13.396,161.576 13.816 C 161.576 14.237,161.754 14.581,161.970 14.581 C 162.187 14.581,162.365 14.921,162.365 15.336 C 162.365 15.796,162.827 16.296,163.547 16.615 C 164.197 16.903,164.729 17.272,164.729 17.436 C 164.729 18.141,171.907 17.757,172.565 17.017 C 172.915 16.623,173.512 16.185,173.892 16.044 C 174.271 15.903,174.581 15.517,174.581 15.185 C 174.581 14.853,174.759 14.581,174.975 14.581 C 175.192 14.581,175.369 14.064,175.369 13.432 C 175.369 12.800,175.578 12.213,175.833 12.128 C 176.689 11.842,175.730 11.034,174.535 11.034 C 173.847 11.034,173.454 10.870,173.596 10.640 C 173.730 10.424,174.184 10.246,174.605 10.246 C 175.260 10.246,175.369 9.964,175.369 8.276 C 175.369 7.192,175.192 6.305,174.975 6.305 C 174.759 6.305,174.581 6.068,174.581 5.778 C 174.581 5.082,172.012 2.759,171.242 2.759 C 170.911 2.759,170.640 2.581,170.640 2.365 C 170.640 2.142,169.524 1.970,168.079 1.970 C 166.634 1.970,165.517 2.142,165.517 2.365 M226.995 5.123 C 226.995 5.340,227.350 5.517,227.783 5.517 C 228.309 5.517,228.571 5.780,228.571 6.305 C 228.571 7.006,228.309 7.094,226.207 7.094 C 223.731 7.094,223.209 6.598,224.335 5.319 C 224.897 4.681,226.995 4.526,226.995 5.123 M134.778 5.911 C 134.778 6.128,134.069 6.305,133.202 6.305 C 132.335 6.305,131.626 6.483,131.626 6.700 C 131.626 6.916,131.182 7.094,130.640 7.094 C 130.099 7.094,129.655 7.271,129.655 7.488 C 129.655 7.704,129.123 7.882,128.473 7.882 C 127.823 7.882,127.291 8.059,127.291 8.276 C 127.291 8.493,126.759 8.670,126.108 8.670 C 124.888 8.670,124.273 10.978,125.320 11.626 C 125.537 11.760,125.714 12.302,125.714 12.831 C 125.714 13.360,125.892 13.793,126.108 13.793 C 126.325 13.793,126.502 14.325,126.502 14.975 C 126.502 15.626,126.680 16.158,126.897 16.158 C 127.113 16.158,127.291 16.512,127.291 16.946 C 127.291 17.379,127.468 17.734,127.685 17.734 C 127.901 17.734,128.079 18.177,128.079 18.719 C 128.079 19.261,128.256 19.704,128.473 19.704 C 128.690 19.704,128.867 20.226,128.867 20.863 C 128.867 21.501,129.024 22.119,129.216 22.238 C 129.407 22.356,129.684 23.254,129.831 24.232 C 129.978 25.210,130.264 26.010,130.467 26.010 C 130.671 26.010,130.837 26.377,130.837 26.826 C 130.837 27.275,131.091 27.896,131.400 28.205 C 132.046 28.851,133.202 28.960,133.202 28.374 C 133.202 28.158,133.690 27.979,134.286 27.978 C 134.882 27.977,135.877 27.711,136.498 27.387 C 137.119 27.063,137.961 26.798,138.370 26.798 C 138.779 26.798,139.113 26.621,139.113 26.404 C 139.113 26.187,139.539 26.010,140.059 26.010 C 140.664 26.010,141.739 25.290,143.046 24.010 L 145.088 22.011 144.958 17.048 C 144.865 13.523,144.685 12.037,144.335 11.921 C 144.064 11.831,143.842 11.417,143.842 11.002 C 143.842 10.586,143.665 10.246,143.448 10.246 C 143.232 10.246,143.054 9.972,143.054 9.637 C 143.054 8.849,141.299 7.094,140.511 7.094 C 140.176 7.094,139.901 6.916,139.901 6.700 C 139.901 6.483,139.369 6.305,138.719 6.305 C 138.069 6.305,137.537 6.128,137.537 5.911 C 137.537 5.695,136.916 5.517,136.158 5.517 C 135.399 5.517,134.778 5.695,134.778 5.911 M169.289 6.080 C 170.498 7.289,169.981 7.882,167.718 7.882 C 166.366 7.882,165.518 8.063,165.407 8.374 C 165.305 8.661,165.085 8.721,164.882 8.517 C 164.678 8.314,164.738 8.094,165.025 7.992 C 165.296 7.895,165.517 7.476,165.517 7.061 C 165.517 6.568,165.791 6.305,166.305 6.305 C 166.739 6.305,167.094 6.128,167.094 5.911 C 167.094 5.318,168.647 5.438,169.289 6.080 M137.901 11.459 C 138.568 12.126,139.113 12.924,139.113 13.232 C 139.113 13.541,139.291 13.793,139.507 13.793 C 139.724 13.793,139.901 14.148,139.901 14.581 C 139.901 15.015,140.079 15.369,140.296 15.369 C 142.288 15.369,139.646 22.010,137.635 22.057 C 137.365 22.064,137.143 22.246,137.143 22.463 C 137.143 23.061,135.193 22.934,134.553 22.294 C 134.243 21.985,133.990 21.364,133.990 20.915 C 133.990 20.466,133.813 20.099,133.596 20.099 C 133.379 20.099,133.202 19.567,133.202 18.916 C 133.202 18.266,133.025 17.734,132.808 17.734 C 132.591 17.734,132.414 17.379,132.414 16.946 C 132.414 16.512,132.236 16.158,132.020 16.158 C 131.803 16.158,131.626 15.626,131.626 14.975 C 131.626 14.325,131.448 13.793,131.232 13.793 C 130.639 13.793,130.758 12.240,131.400 11.597 C 131.710 11.288,132.419 11.034,132.977 11.034 C 133.534 11.034,133.990 10.857,133.990 10.640 C 133.990 9.690,136.699 10.257,137.901 11.459 M224.828 10.640 C 224.962 10.857,226.203 11.034,227.586 11.034 C 228.969 11.034,230.211 11.212,230.345 11.429 C 230.482 11.651,230.161 11.823,229.608 11.823 C 229.069 11.823,228.362 12.089,228.037 12.414 C 226.508 13.942,222.660 12.559,222.660 10.481 C 222.660 10.082,224.569 10.223,224.828 10.640 M172.217 11.237 C 172.217 13.169,167.758 14.354,166.305 12.808 L 165.380 11.823 167.222 11.823 C 168.235 11.823,169.064 11.645,169.064 11.429 C 169.064 11.212,169.773 11.034,170.640 11.034 C 171.507 11.034,172.217 11.126,172.217 11.237 M274.286 14.975 C 274.286 15.192,273.708 15.369,273.002 15.369 C 271.644 15.369,269.163 17.542,269.163 18.732 C 269.163 19.050,268.985 19.310,268.768 19.310 C 268.552 19.310,268.374 19.576,268.374 19.901 C 268.374 20.227,268.197 20.493,267.980 20.493 C 267.409 20.493,267.491 25.855,268.079 26.880 C 268.763 28.074,270.227 29.557,270.721 29.557 C 270.948 29.557,271.133 29.734,271.133 29.951 C 271.133 30.167,271.488 30.345,271.921 30.345 C 272.355 30.345,272.709 30.522,272.709 30.739 C 272.709 31.307,277.287 31.226,278.306 30.640 C 279.493 29.957,281.773 27.699,281.773 27.205 C 281.773 26.981,281.951 26.798,282.167 26.798 C 282.384 26.798,282.562 26.454,282.562 26.033 C 282.562 25.612,282.739 25.159,282.956 25.025 C 283.172 24.891,283.350 23.727,283.350 22.440 C 283.350 21.142,283.174 20.099,282.956 20.099 C 282.739 20.099,282.562 19.827,282.562 19.494 C 282.562 18.710,280.009 16.158,279.225 16.158 C 278.893 16.158,278.621 15.980,278.621 15.764 C 278.621 15.547,278.188 15.369,277.659 15.369 C 277.130 15.369,276.587 15.192,276.453 14.975 C 276.319 14.759,275.777 14.581,275.248 14.581 C 274.719 14.581,274.286 14.759,274.286 14.975 M278.291 20.190 C 279.213 21.642,278.646 24.343,277.075 25.978 C 275.621 27.492,274.286 28.073,274.286 27.192 C 274.286 26.975,274.007 26.798,273.666 26.798 C 271.701 26.798,271.151 22.409,272.898 20.662 C 274.603 18.957,277.356 18.716,278.291 20.190 M300.266 29.064 C 299.960 29.660,299.398 30.435,299.017 30.785 C 298.637 31.136,298.325 31.673,298.325 31.979 C 298.325 32.285,297.970 32.791,297.537 33.103 C 297.103 33.416,296.749 33.922,296.749 34.228 C 296.749 34.534,296.424 35.071,296.026 35.422 C 295.629 35.772,294.974 36.813,294.571 37.734 C 294.168 38.655,293.695 39.409,293.520 39.409 C 293.345 39.409,293.202 39.724,293.202 40.110 C 293.202 40.496,292.847 41.067,292.414 41.379 C 291.980 41.692,291.626 42.263,291.626 42.649 C 291.626 43.034,291.448 43.350,291.232 43.350 C 290.639 43.350,290.758 44.903,291.400 45.545 C 291.710 45.855,292.242 46.108,292.583 46.108 C 292.923 46.108,293.202 46.286,293.202 46.502 C 293.202 46.719,293.468 46.897,293.793 46.897 C 294.118 46.897,294.384 46.581,294.384 46.195 C 294.384 45.810,294.739 45.239,295.172 44.926 C 295.606 44.614,295.961 44.131,295.961 43.854 C 295.961 43.073,296.618 43.254,297.698 44.335 C 298.240 44.877,298.957 45.320,299.292 45.320 C 299.627 45.320,299.901 45.498,299.901 45.714 C 299.901 45.942,301.149 46.108,302.857 46.108 C 304.565 46.108,305.813 45.942,305.813 45.714 C 305.813 45.498,306.087 45.320,306.422 45.320 C 307.691 45.320,310.148 42.144,310.148 40.503 C 310.148 39.901,310.325 39.409,310.542 39.409 C 310.759 39.409,310.936 38.621,310.936 37.659 C 310.936 36.696,310.759 35.799,310.542 35.665 C 310.325 35.531,310.142 35.033,310.135 34.558 C 310.118 33.489,308.859 31.921,308.016 31.921 C 307.671 31.921,307.389 31.744,307.389 31.527 C 307.389 31.310,306.680 31.133,305.813 31.133 C 304.642 31.133,304.236 30.973,304.236 30.514 C 304.236 29.717,303.288 28.768,302.491 28.768 C 302.151 28.768,301.872 28.591,301.872 28.374 C 301.872 27.561,300.802 28.021,300.266 29.064 M305.320 35.040 C 306.591 35.541,307.354 38.621,306.207 38.621 C 305.990 38.621,305.813 38.893,305.813 39.225 C 305.813 40.019,303.256 42.562,302.458 42.562 C 301.306 42.562,299.901 40.731,299.901 39.230 C 299.901 38.461,300.079 37.833,300.296 37.833 C 300.512 37.833,300.690 37.554,300.690 37.213 C 300.690 36.303,303.142 34.155,303.842 34.451 C 303.951 34.497,304.616 34.762,305.320 35.040 M325.911 48.093 C 325.911 48.318,325.092 49.249,324.091 50.162 C 319.583 54.273,317.241 56.880,317.241 57.788 C 317.241 59.683,319.628 60.955,321.025 59.803 C 322.346 58.714,324.983 56.046,325.911 54.861 C 326.978 53.500,328.346 53.215,329.289 54.159 C 330.414 55.284,329.890 56.322,326.502 59.671 C 322.859 63.273,322.545 64.059,324.120 65.634 C 325.604 67.118,326.110 66.880,329.989 62.885 C 333.870 58.887,335.764 58.122,335.764 60.553 C 335.764 61.535,335.444 61.955,331.921 65.616 C 330.783 66.799,329.852 67.947,329.852 68.169 C 329.852 68.390,329.675 68.571,329.458 68.571 C 329.241 68.571,329.064 69.103,329.064 69.754 C 329.064 70.624,329.249 70.936,329.765 70.936 C 330.151 70.936,330.722 71.291,331.034 71.724 C 331.766 72.739,332.489 72.729,332.816 71.698 C 332.958 71.250,334.079 69.920,335.306 68.744 C 340.978 63.304,340.493 63.989,340.493 61.430 C 340.493 60.148,340.317 59.113,340.099 59.113 C 339.882 59.113,339.704 58.759,339.704 58.325 C 339.704 57.800,339.442 57.537,338.916 57.537 C 338.483 57.537,338.128 57.360,338.128 57.143 C 338.128 56.926,337.773 56.749,337.340 56.749 C 336.906 56.749,336.552 56.571,336.552 56.355 C 336.552 56.138,336.020 55.961,335.369 55.961 C 334.280 55.961,334.187 55.852,334.187 54.578 C 334.187 52.757,332.536 50.837,330.969 50.837 C 330.224 50.837,329.852 50.634,329.852 50.228 C 329.852 49.271,328.020 47.685,326.914 47.685 C 326.363 47.685,325.911 47.868,325.911 48.093 M65.813 53.202 C 65.813 53.419,65.539 53.596,65.204 53.596 C 64.314 53.596,62.660 55.396,62.660 56.365 C 62.660 57.250,61.813 58.325,61.116 58.325 C 60.284 58.325,59.113 59.706,59.113 60.687 C 59.113 61.825,68.055 70.936,69.172 70.936 C 69.992 70.936,71.724 69.174,71.724 68.340 C 71.724 67.976,70.616 66.564,69.261 65.202 C 67.906 63.840,66.621 62.480,66.404 62.180 C 65.427 60.828,64.979 59.776,65.284 59.553 C 65.466 59.420,65.811 58.956,66.050 58.522 C 66.673 57.392,67.992 57.339,69.160 58.398 C 72.380 61.318,74.445 63.495,74.671 64.210 C 74.814 64.658,75.101 65.025,75.311 65.025 C 75.843 65.025,78.424 62.389,78.424 61.846 C 78.424 61.332,76.150 59.113,75.623 59.113 C 75.430 59.113,75.271 58.848,75.271 58.524 C 75.271 57.776,71.370 53.596,70.672 53.596 C 70.383 53.596,70.148 53.419,70.148 53.202 C 70.148 52.985,69.172 52.808,67.980 52.808 C 66.788 52.808,65.813 52.985,65.813 53.202 M45.911 75.405 C 45.046 76.498,44.518 77.687,44.739 78.046 C 44.867 78.254,44.688 78.424,44.340 78.424 C 43.533 78.424,41.773 80.168,41.773 80.967 C 41.773 81.302,41.596 81.576,41.379 81.576 C 40.554 81.576,40.910 87.259,41.773 87.882 C 42.207 88.194,42.562 88.643,42.562 88.880 C 42.562 89.447,44.727 91.034,45.501 91.034 C 45.835 91.034,46.108 91.212,46.108 91.429 C 46.108 92.026,51.127 91.931,51.342 91.330 C 51.439 91.059,51.659 90.969,51.832 91.131 C 52.005 91.292,51.852 91.749,51.492 92.147 C 51.132 92.545,50.837 93.344,50.837 93.923 C 50.837 95.697,55.942 95.524,57.577 93.695 C 59.338 91.724,59.507 91.492,59.507 91.051 C 59.507 90.825,59.685 90.640,59.901 90.640 C 60.118 90.640,60.296 90.108,60.296 89.458 C 60.296 88.808,60.473 88.276,60.690 88.276 C 60.906 88.276,61.084 87.744,61.084 87.094 C 61.084 86.443,60.906 85.911,60.690 85.911 C 60.473 85.911,60.296 85.500,60.296 84.997 C 60.296 84.204,58.752 82.365,58.086 82.365 C 57.958 82.365,57.356 81.833,56.749 81.182 C 56.141 80.532,55.400 80.000,55.101 80.000 C 54.803 80.000,54.303 79.645,53.990 79.212 C 53.678 78.778,53.178 78.424,52.879 78.424 C 52.580 78.424,51.839 77.892,51.232 77.241 C 50.624 76.591,49.954 76.059,49.742 76.059 C 49.531 76.059,49.137 75.793,48.867 75.468 C 48.274 74.754,46.458 74.715,45.911 75.405 M349.557 78.030 C 349.557 78.246,349.286 78.424,348.955 78.424 C 348.173 78.424,344.828 81.769,344.828 82.551 C 344.828 82.882,344.650 83.153,344.433 83.153 C 344.215 83.153,344.039 84.196,344.039 85.494 C 344.039 86.782,344.217 87.945,344.433 88.079 C 344.650 88.213,344.828 88.627,344.828 89.000 C 344.828 89.373,345.207 89.939,345.670 90.258 C 346.134 90.577,346.923 91.236,347.426 91.724 C 347.928 92.212,348.701 92.611,349.145 92.611 C 349.588 92.611,349.951 92.788,349.951 93.005 C 349.951 93.222,350.660 93.399,351.527 93.399 C 352.394 93.399,353.103 93.222,353.103 93.005 C 353.103 92.788,353.458 92.611,353.892 92.611 C 354.325 92.611,354.680 92.433,354.680 92.217 C 354.680 92.000,355.034 91.823,355.468 91.823 C 355.901 91.823,356.256 91.666,356.256 91.475 C 356.256 91.283,356.610 91.034,357.042 90.921 C 357.475 90.808,357.950 90.388,358.099 89.988 C 358.247 89.588,358.692 88.974,359.086 88.624 C 360.186 87.646,360.132 81.988,359.015 81.182 C 358.581 80.870,358.227 80.375,358.227 80.082 C 358.227 79.483,357.621 78.854,356.345 78.128 C 355.309 77.539,349.557 77.456,349.557 78.030 M48.473 81.182 C 48.473 81.399,48.753 81.576,49.094 81.576 C 51.158 81.576,52.616 84.968,51.254 86.601 C 50.489 87.517,47.685 87.904,47.685 87.094 C 47.685 86.877,47.406 86.700,47.065 86.700 C 46.283 86.700,45.320 85.755,45.320 84.987 C 45.320 84.665,45.099 84.297,44.828 84.171 C 44.433 83.987,44.433 83.895,44.828 83.711 C 45.099 83.585,45.320 83.306,45.320 83.092 C 45.320 82.650,45.979 81.993,47.110 81.304 C 48.080 80.714,48.473 80.679,48.473 81.182 M354.680 81.944 C 354.680 82.146,355.034 82.424,355.468 82.562 C 356.265 82.815,356.695 85.911,355.933 85.911 C 355.546 85.911,353.892 84.063,353.892 83.631 C 353.892 83.464,353.537 83.071,353.103 82.759 C 351.995 81.960,352.122 81.576,353.498 81.576 C 354.148 81.576,354.680 81.742,354.680 81.944 M349.951 85.147 C 349.951 85.408,350.261 85.911,350.640 86.263 C 351.307 86.884,352.315 88.448,352.315 88.862 C 352.315 89.477,350.052 88.959,349.545 88.228 C 349.226 87.768,348.744 87.159,348.473 86.876 C 347.884 86.261,347.820 85.123,348.374 85.123 C 348.591 85.123,348.768 84.756,348.768 84.307 C 348.768 83.581,348.834 83.556,349.360 84.082 C 349.685 84.407,349.951 84.886,349.951 85.147 M56.186 86.474 C 57.089 87.378,56.841 88.662,55.525 89.891 C 53.738 91.560,52.381 91.474,53.987 89.794 C 54.822 88.919,55.172 88.163,55.172 87.232 C 55.172 85.772,55.351 85.639,56.186 86.474 M24.138 99.900 C 23.867 100.208,23.645 101.265,23.645 102.249 L 23.645 104.039 25.355 104.039 C 27.185 104.039,27.980 103.162,27.980 101.144 C 27.980 99.424,25.317 98.561,24.138 99.900 M28.519 102.215 C 26.980 103.973,28.139 106.798,30.398 106.798 C 30.802 106.798,31.133 106.975,31.133 107.192 C 31.133 107.409,31.488 107.586,31.921 107.586 C 32.355 107.586,32.709 107.764,32.709 107.980 C 32.709 108.197,33.064 108.374,33.498 108.374 C 33.931 108.374,34.286 108.519,34.286 108.695 C 34.286 108.871,34.906 109.259,35.665 109.557 C 36.424 109.854,37.044 110.242,37.044 110.418 C 37.044 110.595,37.334 110.739,37.688 110.739 C 38.042 110.739,38.664 111.123,39.071 111.592 C 39.945 112.600,41.773 111.978,41.773 110.672 C 41.773 110.275,41.951 109.951,42.167 109.951 C 43.564 109.951,42.435 107.922,40.591 107.117 C 39.507 106.643,38.621 106.112,38.621 105.936 C 38.621 105.760,38.266 105.616,37.833 105.616 C 37.399 105.616,37.044 105.438,37.044 105.222 C 37.044 105.005,36.690 104.828,36.256 104.828 C 35.823 104.828,35.468 104.650,35.468 104.433 C 35.468 104.217,35.202 104.039,34.877 104.039 C 34.552 104.039,34.286 103.862,34.286 103.645 C 34.286 103.429,33.931 103.251,33.498 103.251 C 33.064 103.251,32.709 103.074,32.709 102.857 C 32.709 102.640,32.355 102.463,31.921 102.463 C 31.488 102.463,31.133 102.286,31.133 102.069 C 31.133 101.497,29.045 101.614,28.519 102.215 M369.655 102.069 C 369.655 102.286,369.300 102.463,368.867 102.463 C 368.433 102.463,368.079 102.640,368.079 102.857 C 368.079 103.074,367.724 103.251,367.291 103.251 C 366.857 103.251,366.502 103.429,366.502 103.645 C 366.502 103.862,366.148 104.039,365.714 104.039 C 365.281 104.039,364.926 104.217,364.926 104.433 C 364.926 104.650,364.660 104.828,364.335 104.828 C 364.010 104.828,363.744 105.005,363.744 105.222 C 363.744 105.438,363.389 105.616,362.956 105.616 C 362.522 105.616,362.167 105.793,362.167 106.010 C 362.167 106.227,361.884 106.404,361.537 106.404 C 359.822 106.404,357.150 108.243,357.849 108.943 C 358.057 109.150,358.227 109.563,358.227 109.861 C 358.227 111.949,363.907 111.604,364.860 109.458 C 364.933 109.296,365.332 109.163,365.747 109.163 C 366.163 109.163,366.502 108.985,366.502 108.768 C 366.502 108.552,366.857 108.374,367.291 108.374 C 367.724 108.374,368.079 108.197,368.079 107.980 C 368.079 107.764,368.433 107.586,368.867 107.586 C 369.300 107.586,369.655 107.764,369.655 107.980 C 369.655 108.197,370.010 108.374,370.443 108.374 C 370.957 108.374,371.232 108.637,371.232 109.130 C 371.232 109.545,371.448 109.957,371.713 110.046 C 372.341 110.255,370.310 112.315,369.476 112.315 C 369.141 112.315,368.867 112.493,368.867 112.709 C 368.867 112.926,368.512 113.103,368.079 113.103 C 367.645 113.103,367.291 113.281,367.291 113.498 C 367.291 113.714,366.980 113.897,366.601 113.904 C 366.222 113.911,365.567 114.177,365.146 114.495 C 364.726 114.814,364.137 115.074,363.837 115.074 C 363.538 115.074,363.040 115.327,362.730 115.637 C 362.091 116.277,361.963 118.227,362.562 118.227 C 362.778 118.227,362.956 118.581,362.956 119.015 C 362.956 119.653,363.218 119.803,364.335 119.803 C 365.094 119.803,365.714 119.626,365.714 119.409 C 365.714 119.192,366.069 119.015,366.502 119.015 C 366.936 119.015,367.291 118.837,367.291 118.621 C 367.291 118.404,367.645 118.227,368.079 118.227 C 368.512 118.227,368.867 118.049,368.867 117.833 C 368.867 117.616,369.222 117.438,369.655 117.438 C 370.089 117.438,370.443 117.261,370.443 117.044 C 370.443 116.828,370.798 116.650,371.232 116.650 C 371.665 116.650,372.020 116.473,372.020 116.256 C 372.020 116.039,372.205 115.862,372.432 115.862 C 372.658 115.862,373.287 115.419,373.829 114.877 C 374.371 114.335,374.983 113.892,375.190 113.892 C 375.397 113.892,375.567 112.650,375.567 111.133 C 375.567 109.557,375.398 108.374,375.172 108.374 C 374.956 108.374,374.778 108.020,374.778 107.586 C 374.778 107.153,374.628 106.798,374.445 106.798 C 373.543 106.798,372.506 105.261,372.250 103.547 C 371.990 101.800,369.655 100.470,369.655 102.069 M252.808 115.468 C 252.674 115.685,251.610 115.862,250.443 115.862 C 249.277 115.862,248.213 116.039,248.079 116.256 C 247.945 116.473,246.870 116.650,245.691 116.650 C 244.512 116.650,243.547 116.828,243.547 117.044 C 243.547 117.267,242.430 117.438,240.985 117.438 C 239.540 117.438,238.424 117.610,238.424 117.833 C 238.424 118.051,237.373 118.227,236.059 118.227 C 234.745 118.227,233.695 118.402,233.695 118.621 C 233.695 118.837,232.719 119.015,231.527 119.015 C 230.335 119.015,229.360 119.192,229.360 119.409 C 229.360 119.631,228.243 119.803,226.798 119.803 C 225.353 119.803,224.236 119.975,224.236 120.197 C 224.236 120.416,223.186 120.591,221.872 120.591 C 220.558 120.591,219.507 120.766,219.507 120.985 C 219.507 121.202,218.532 121.379,217.340 121.379 C 216.148 121.379,215.172 121.534,215.172 121.723 C 215.172 121.912,214.277 122.153,213.184 122.258 C 209.454 122.617,207.782 125.510,208.701 130.019 C 208.998 131.473,211.218 133.990,212.204 133.990 C 212.536 133.990,212.808 134.167,212.808 134.384 C 212.808 134.601,213.429 134.778,214.187 134.778 C 214.946 134.778,215.567 134.601,215.567 134.384 C 215.567 134.165,216.617 133.990,217.931 133.990 C 219.245 133.990,220.296 133.815,220.296 133.596 C 220.296 133.374,221.412 133.202,222.857 133.202 C 224.302 133.202,225.419 133.030,225.419 132.808 C 225.419 132.589,226.470 132.414,227.783 132.414 C 229.097 132.414,230.148 132.239,230.148 132.020 C 230.148 131.803,231.123 131.626,232.315 131.626 C 233.507 131.626,234.483 131.448,234.483 131.232 C 234.483 131.009,235.599 130.837,237.044 130.837 C 238.489 130.837,239.606 130.666,239.606 130.443 C 239.606 130.227,240.077 130.049,240.652 130.049 C 241.641 130.049,241.663 130.089,241.046 130.770 C 240.688 131.166,240.394 131.698,240.394 131.952 C 240.394 132.206,240.220 132.414,240.008 132.414 C 239.795 132.414,239.499 132.900,239.350 133.494 C 239.201 134.088,238.399 135.227,237.569 136.025 C 236.739 136.822,236.059 137.587,236.059 137.724 C 236.059 137.862,235.528 138.541,234.879 139.233 C 234.229 139.926,233.697 140.714,233.696 140.985 C 233.695 141.256,233.537 141.478,233.345 141.478 C 233.153 141.478,232.722 142.054,232.386 142.759 C 232.051 143.463,231.410 144.431,230.962 144.910 C 230.514 145.388,230.148 145.878,230.148 145.997 C 230.148 146.116,229.616 146.771,228.966 147.451 C 228.315 148.132,227.783 148.863,227.783 149.076 C 227.783 149.290,227.472 149.751,227.091 150.102 C 226.710 150.452,226.148 151.227,225.842 151.823 C 225.536 152.419,225.138 152.906,224.958 152.906 C 224.778 152.906,224.631 153.135,224.631 153.415 C 224.631 153.695,224.010 154.583,223.251 155.387 C 222.493 156.191,221.872 157.034,221.872 157.260 C 221.872 157.486,221.429 158.115,220.887 158.657 C 220.345 159.198,219.901 159.803,219.901 160.000 C 219.901 160.197,219.458 160.802,218.916 161.343 C 218.374 161.885,217.931 162.514,217.931 162.741 C 217.931 162.967,217.774 163.153,217.582 163.153 C 217.390 163.153,216.919 163.818,216.536 164.631 C 216.152 165.443,215.511 166.395,215.111 166.746 C 214.711 167.096,214.384 167.601,214.384 167.868 C 214.384 168.135,213.852 168.851,213.202 169.458 C 212.552 170.066,212.020 170.670,212.020 170.802 C 212.020 170.934,211.488 171.598,210.837 172.279 C 210.187 172.959,209.655 173.756,209.655 174.049 C 209.655 174.342,209.491 174.581,209.290 174.581 C 209.089 174.581,208.612 175.289,208.230 176.155 C 207.848 177.020,207.214 177.830,206.822 177.955 C 206.429 178.079,206.108 178.435,206.108 178.746 C 206.108 179.056,205.931 179.310,205.714 179.310 C 205.498 179.310,205.320 179.562,205.320 179.869 C 205.320 180.176,205.121 180.493,204.877 180.575 C 204.633 180.656,204.433 181.203,204.433 181.790 C 204.433 182.377,204.278 182.857,204.089 182.857 C 203.899 182.857,203.744 183.478,203.744 184.236 C 203.744 184.995,203.921 185.616,204.138 185.616 C 204.355 185.616,204.532 185.970,204.532 186.404 C 204.532 186.837,204.709 187.192,204.926 187.192 C 205.143 187.192,205.320 187.471,205.320 187.811 C 205.320 189.451,210.647 192.004,211.429 190.739 C 211.563 190.522,212.066 190.345,212.547 190.345 C 213.028 190.345,213.678 189.990,213.990 189.557 C 214.303 189.123,214.785 188.768,215.062 188.768 C 215.340 188.768,215.567 188.453,215.567 188.067 C 215.567 187.682,215.921 187.110,216.355 186.798 C 216.788 186.486,217.143 186.092,217.143 185.923 C 217.143 185.755,217.852 184.886,218.719 183.992 C 219.586 183.099,220.296 182.123,220.296 181.824 C 220.296 181.525,220.461 181.281,220.663 181.281 C 220.865 181.281,221.137 180.947,221.266 180.539 C 221.396 180.130,222.028 179.245,222.672 178.572 C 223.316 177.898,223.842 177.079,223.842 176.752 C 223.842 176.425,223.990 176.158,224.170 176.158 C 224.350 176.158,224.749 175.675,225.057 175.084 C 225.364 174.494,226.281 173.320,227.094 172.475 C 227.906 171.631,228.571 170.695,228.571 170.396 C 228.571 170.097,228.749 169.852,228.966 169.852 C 229.182 169.852,229.360 169.667,229.360 169.441 C 229.360 169.215,229.803 168.552,230.345 167.967 C 230.887 167.383,231.330 166.681,231.330 166.408 C 231.330 166.135,231.507 165.911,231.724 165.911 C 231.941 165.911,232.118 165.684,232.118 165.407 C 232.118 165.130,232.473 164.647,232.906 164.335 C 233.340 164.023,233.695 163.540,233.695 163.263 C 233.695 162.986,234.404 162.029,235.271 161.135 C 236.138 160.242,236.847 159.249,236.847 158.928 C 236.847 158.608,237.379 157.849,238.030 157.241 C 238.680 156.634,239.212 155.884,239.212 155.576 C 239.212 155.267,239.655 154.598,240.197 154.089 C 240.739 153.580,241.182 152.999,241.182 152.799 C 241.182 152.598,241.714 151.937,242.365 151.330 C 243.015 150.723,243.547 149.981,243.547 149.683 C 243.547 149.384,243.901 148.884,244.335 148.571 C 244.768 148.259,245.123 147.780,245.123 147.506 C 245.123 147.233,245.744 146.370,246.502 145.589 C 247.261 144.808,247.882 143.933,247.882 143.644 C 247.882 143.356,248.015 143.061,248.177 142.989 C 248.340 142.916,249.163 141.941,250.006 140.822 C 251.963 138.224,252.611 138.398,252.611 141.520 C 252.611 142.806,252.787 143.842,253.005 143.842 C 253.223 143.842,253.399 144.886,253.399 146.184 C 253.399 147.471,253.576 148.635,253.793 148.768 C 254.010 148.902,254.187 149.977,254.187 151.156 C 254.187 152.336,254.335 153.300,254.516 153.300 C 254.696 153.300,255.043 155.384,255.286 157.931 C 255.952 164.912,256.166 165.960,257.114 166.864 C 258.226 167.924,259.537 168.670,260.290 168.670 C 260.618 168.670,260.887 168.847,260.887 169.064 C 260.887 169.281,261.685 169.458,262.660 169.458 C 263.635 169.458,264.433 169.281,264.433 169.064 C 264.433 168.847,264.717 168.670,265.064 168.670 C 265.789 168.670,267.924 166.511,268.366 165.331 C 268.530 164.891,268.502 163.113,268.303 161.379 C 268.105 159.645,267.846 157.207,267.729 155.961 C 267.612 154.714,267.355 153.695,267.157 153.695 C 266.960 153.695,266.798 152.631,266.798 151.330 C 266.798 150.030,266.636 148.966,266.439 148.966 C 266.104 148.966,265.955 147.929,265.378 141.576 C 265.255 140.222,264.992 139.113,264.794 139.113 C 264.596 139.113,264.433 138.138,264.433 136.946 C 264.433 135.754,264.256 134.778,264.039 134.778 C 263.817 134.778,263.645 133.662,263.645 132.217 C 263.645 130.808,263.491 129.655,263.302 129.655 C 263.113 129.655,262.832 127.706,262.678 125.323 C 262.523 122.940,262.235 120.890,262.036 120.768 C 261.837 120.645,261.675 120.023,261.675 119.386 C 261.675 118.748,261.526 118.227,261.344 118.227 C 261.162 118.227,260.820 117.803,260.584 117.284 C 259.772 115.502,253.668 114.077,252.808 115.468 M18.818 123.484 C 18.222 124.002,17.734 124.716,17.734 125.070 C 17.734 125.425,17.557 125.714,17.340 125.714 C 17.123 125.714,16.946 126.069,16.946 126.502 C 16.946 126.936,16.768 127.291,16.552 127.291 C 16.335 127.291,16.158 128.266,16.158 129.458 C 16.158 130.650,16.335 131.626,16.552 131.626 C 16.768 131.626,16.946 131.900,16.946 132.235 C 16.946 134.428,21.935 135.817,23.251 133.990 C 23.564 133.557,23.958 133.202,24.126 133.202 C 24.295 133.202,24.433 133.557,24.433 133.990 C 24.433 134.424,24.256 134.778,24.039 134.778 C 23.823 134.778,23.645 135.310,23.645 135.961 C 23.645 137.138,23.654 137.143,25.933 137.143 C 28.362 137.143,31.133 135.382,31.133 133.838 C 31.133 133.488,31.310 133.202,31.527 133.202 C 31.744 133.202,31.921 132.847,31.921 132.414 C 31.921 131.980,32.099 131.626,32.315 131.626 C 33.473 131.626,32.719 126.880,31.343 125.504 C 29.608 123.769,26.072 123.492,24.773 124.989 C 24.367 125.458,23.908 125.714,23.753 125.559 C 23.598 125.404,23.703 125.134,23.987 124.959 C 24.270 124.783,24.443 124.217,24.369 123.699 C 24.167 122.266,20.386 122.119,18.818 123.484 M22.857 127.204 C 22.857 127.589,22.502 128.160,22.069 128.473 C 21.635 128.785,21.281 129.268,21.281 129.545 C 21.281 129.822,20.926 130.049,20.493 130.049 C 20.055 130.049,19.704 129.787,19.704 129.458 C 19.704 129.133,19.882 128.867,20.099 128.867 C 20.315 128.867,20.493 128.594,20.493 128.259 C 20.493 127.925,20.714 127.400,20.985 127.092 C 21.689 126.292,22.857 126.362,22.857 127.204 M28.768 129.678 C 28.768 130.099,28.591 130.443,28.374 130.443 C 28.158 130.443,27.980 130.682,27.980 130.974 C 27.980 132.068,26.470 133.353,25.819 132.813 C 25.189 132.290,24.991 130.837,25.549 130.837 C 25.729 130.837,26.110 130.402,26.394 129.870 C 27.207 128.352,28.768 128.226,28.768 129.678 M381.379 130.113 C 380.486 130.440,380.296 130.745,380.296 131.856 C 380.296 133.089,380.196 133.202,379.113 133.202 C 378.463 133.202,377.931 133.379,377.931 133.596 C 377.931 133.813,377.399 133.990,376.749 133.990 C 376.099 133.990,375.567 134.167,375.567 134.384 C 375.567 134.601,375.034 134.778,374.384 134.778 C 373.734 134.778,373.202 134.956,373.202 135.172 C 373.202 135.389,373.012 135.567,372.780 135.567 C 371.702 135.567,371.232 136.756,371.232 139.479 L 371.232 142.266 373.399 142.266 C 375.545 142.266,375.567 142.254,375.567 141.084 C 375.567 140.433,375.389 139.901,375.172 139.901 C 374.956 139.901,374.778 139.724,374.778 139.507 C 374.778 139.291,375.133 139.113,375.567 139.113 C 376.000 139.113,376.355 138.959,376.355 138.770 C 376.355 138.581,377.234 138.310,378.309 138.167 C 379.384 138.025,380.370 137.736,380.500 137.526 C 381.014 136.693,382.266 137.120,382.266 138.128 C 382.266 138.960,382.450 139.113,383.448 139.113 C 384.099 139.113,384.631 138.936,384.631 138.719 C 384.631 138.502,384.985 138.325,385.419 138.325 C 386.045 138.325,386.208 138.061,386.210 137.044 C 386.213 135.719,387.390 134.778,389.044 134.778 C 389.491 134.778,389.754 134.487,389.754 133.990 C 389.754 133.557,389.576 133.202,389.360 133.202 C 389.143 133.202,388.966 132.713,388.966 132.115 C 388.966 130.973,387.634 129.728,387.187 130.451 C 386.782 131.107,383.842 130.927,383.842 130.246 C 383.842 129.578,382.973 129.531,381.379 130.113 M13.793 150.936 C 13.793 151.153,13.350 151.330,12.808 151.330 C 12.266 151.330,11.823 151.507,11.823 151.724 C 11.823 151.941,11.468 152.118,11.034 152.118 C 10.509 152.118,10.246 152.381,10.246 152.906 C 10.246 153.340,10.069 153.695,9.852 153.695 C 9.635 153.695,9.458 153.961,9.458 154.286 C 9.458 154.611,9.281 154.877,9.064 154.877 C 8.834 154.877,8.670 156.194,8.670 158.040 L 8.670 161.203 10.433 162.966 C 11.403 163.936,12.555 164.729,12.995 164.729 C 13.434 164.729,13.793 164.906,13.793 165.123 C 13.793 165.351,15.041 165.517,16.749 165.517 C 18.456 165.517,19.704 165.351,19.704 165.123 C 19.704 164.906,19.976 164.729,20.309 164.729 C 20.963 164.729,23.144 162.646,23.941 161.261 C 24.528 160.240,24.611 154.877,24.039 154.877 C 23.823 154.877,23.645 154.694,23.645 154.470 C 23.645 153.258,20.333 150.861,19.987 151.823 C 19.867 152.157,19.557 152.030,19.022 151.429 C 18.186 150.489,13.793 150.076,13.793 150.936 M19.310 154.849 C 19.310 155.267,19.576 155.875,19.901 156.200 C 21.192 157.490,20.050 161.182,18.360 161.182 C 17.892 161.182,17.734 160.784,17.734 159.606 C 17.734 158.739,17.911 158.030,18.128 158.030 C 18.345 158.030,18.522 157.143,18.522 156.059 C 18.522 154.975,18.700 154.089,18.916 154.089 C 19.133 154.089,19.310 154.431,19.310 154.849 M14.581 156.453 C 14.581 157.320,14.404 158.030,14.187 158.030 C 13.970 158.030,13.793 158.562,13.793 159.212 C 13.793 160.534,13.600 160.652,12.780 159.831 C 12.143 159.195,12.006 156.453,12.611 156.453 C 12.828 156.453,13.005 156.099,13.005 155.665 C 13.005 155.140,13.268 154.877,13.793 154.877 C 14.450 154.877,14.581 155.140,14.581 156.453 M4.560 181.797 C 4.142 182.055,2.989 183.059,1.998 184.029 L 0.197 185.792 0.058 192.206 L -0.081 198.621 9.812 198.621 L 19.704 198.621 19.704 197.438 C 19.704 196.788,19.882 196.256,20.099 196.256 C 20.336 196.256,20.493 194.614,20.493 192.118 C 20.493 189.842,20.339 187.980,20.150 187.980 C 19.962 187.980,19.715 187.284,19.601 186.432 C 19.344 184.519,17.086 182.069,15.580 182.069 C 15.031 182.069,14.581 181.892,14.581 181.675 C 14.581 181.098,5.512 181.209,4.560 181.797 M13.005 186.010 C 13.005 186.227,13.284 186.404,13.624 186.404 C 14.421 186.404,15.369 187.353,15.369 188.149 C 15.369 188.490,15.547 188.768,15.764 188.768 C 15.986 188.768,16.158 189.885,16.158 191.330 L 16.158 193.892 9.905 193.892 L 3.652 193.892 3.855 191.057 C 4.065 188.116,5.033 186.404,6.485 186.404 C 6.820 186.404,7.094 186.227,7.094 186.010 C 7.094 185.782,8.342 185.616,10.049 185.616 C 11.757 185.616,13.005 185.782,13.005 186.010 " stroke="none" fill="#040404" fill-rule="evenodd"></path><path id="path3" d="" stroke="none" fill="#408480" fill-rule="evenodd"></path><path id="path4" d="" stroke="none" fill="#400484" fill-rule="evenodd"></path></g></svg>